<?xml version="1.0" encoding="UTF-8" standalone="no"?>
<!DOCTYPE svg PUBLIC "-//W3C//DTD SVG 1.1//EN" "http://www.w3.org/Graphics/SVG/1.1/DTD/svg11.dtd">
<svg width="100%" height="100%" viewBox="0 0 300 200" version="1.1" xmlns="http://www.w3.org/2000/svg" xmlns:xlink="http://www.w3.org/1999/xlink" xml:space="preserve" xmlns:serif="http://www.serif.com/" style="fill-rule:evenodd;clip-rule:evenodd;stroke-linejoin:round;stroke-miterlimit:2;">
    <g id="logo" transform="matrix(0.375,0,0,0.333333,0,0)">
        <rect x="0" y="0" width="800" height="600" style="fill:none;"/>
        <g transform="matrix(2.66667,0,0,3,0,0)">
            <rect x="20" y="20" width="260" height="160" style="fill:rgb(247,144,32);"/>
        </g>
        <g transform="matrix(1.17949,0,0,3,416.41,0)">
            <path d="M280,20L103.652,20C48.638,44.667 13.217,180 13.217,180L280,180L280,20Z" style="fill:rgb(0,59,76);"/>
        </g>
        <g id="path2453" transform="matrix(0.162241,0,0,0.182521,332.746,409.37)">
            <path d="M-1160,804.753C-1163.9,803.193 -1166,800.783 -1166,797.893C-1166,793.843 -1163,785.973 -1159.3,780.123C-1130.65,735.838 -1164.47,720.165 -1170.5,598.873C-1171.7,574.513 -1174.7,545.533 -1176.2,544.403C-1176.73,543.999 -1186.35,541.873 -1195,541.873L-1195,518.113C-1199.87,514.41 -1201,514.452 -1205.4,503.483C-1207.5,498.193 -1209.5,493.873 -1209.9,493.873C-1211.9,493.873 -1220.2,500.183 -1221,502.323C-1221.5,503.683 -1223.7,505.903 -1225.8,507.253C-1229.3,509.483 -1229.8,510.203 -1230.3,515.093C-1234.14,546.316 -1244.48,556.881 -1248,607.873C-1253.65,685.868 -1290.93,747.624 -1277,750.893C-1275.1,751.363 -1274.6,752.043 -1274.8,753.933C-1277.06,772.822 -1265,781.236 -1265,793.823C-1265,799.533 -1265.2,799.993 -1267.7,801.063C-1272.1,802.863 -1288.9,802.563 -1292.8,800.613C-1296,799.013 -1296.1,799.023 -1297,801.393C-1299.77,808.43 -1322.65,803.174 -1330.1,795.293C-1332.2,792.983 -1332.2,792.903 -1331,776.573C-1328.59,745.826 -1336.08,745.167 -1328.5,735.703C-1320.9,726.153 -1321,726.943 -1322.8,689.373C-1328.84,555.511 -1279.61,664.818 -1334,524.073C-1336.4,517.853 -1338.8,512.463 -1339.4,512.083C-1342.1,510.383 -1347.9,508.903 -1352,508.873C-1361.52,508.807 -1358.9,510.809 -1355,470.163C-1350,417.078 -1343.59,414.769 -1349.5,413.273C-1351.3,412.823 -1353.2,413.393 -1356,415.263C-1370.75,424.952 -1379.46,407.883 -1385.1,407.883C-1388.4,407.863 -1415.8,376.253 -1427.2,359.373C-1431,353.683 -1431.2,353.053 -1430.8,347.133C-1430.2,336.373 -1414.27,309.428 -1408.4,300.763C-1397.68,285.259 -1392.22,269.781 -1385.6,260.493C-1367.37,234.942 -1356.04,239.409 -1345.9,225.613C-1335.24,210.879 -1340.24,168.234 -1328.6,148.508C-1318.79,131.827 -1300.77,129.132 -1288.6,134.693C-1275.9,140.407 -1273.7,144.373 -1266.5,174.528C-1261.7,194.543 -1261,198.643 -1261,207.653C-1261,227.141 -1267.67,224.78 -1260.7,233.973C-1253.19,243.544 -1257.46,243.309 -1246.1,247.283C-1236.69,250.545 -1220.75,255.32 -1229.5,298.063C-1232.6,312.963 -1233,331.943 -1230.4,337.493C-1229.3,339.673 -1229,342.193 -1229.3,344.423C-1229.99,348.429 -1228.25,353.863 -1222.9,353.863C-1215.85,353.898 -1218.69,348.873 -1200,342.433C-1195.9,341.013 -1192.2,339.473 -1191.8,339.023C-1190.3,337.563 -1188.2,315.943 -1187,290.373C-1185.2,249.973 -1184.6,248.033 -1171,238.633C-1154.59,227.261 -1169.17,233.693 -1150.1,215.343C-1145.15,182.997 -1143.53,167.284 -1129.5,146.328C-1123.1,136.798 -1120.2,135.052 -1109.1,134.197C-1091.93,132.874 -1087.64,141.818 -1078.5,160.371C-1078.98,236.101 -1092.46,233.607 -1075.1,235.323C-1056.25,237.209 -1047.43,239.085 -1047.1,287.373C-1047.1,342.351 -1035.74,326.412 -1034.9,441.343C-1034.9,485.818 -1025.49,499.208 -1049.4,514.553C-1034.98,567.224 -1048.27,527.54 -1046.7,557.693C-1044.72,593.845 -1027.91,592.307 -1015,658.723C-1008.85,690.164 -999.004,732.113 -999.004,732.113C-999.004,739.303 -991.304,762.183 -983.504,778.343C-974.904,796.033 -974.204,799.863 -979.004,802.343C-980.604,803.183 -982.704,803.873 -983.704,803.873C-987.104,803.873 -1006.5,795.963 -1008.2,793.883C-1009.8,791.863 -1011.2,786.303 -1012.5,776.623C-1013.36,769.182 -1015,774.369 -1015,767.723C-1015,756.503 -1025.92,760.172 -1022.4,743.153C-1018.03,722.207 -1024.31,713.621 -1040.2,680.373C-1059.66,640.249 -1064.81,625.647 -1071.5,613.373C-1085.65,587.297 -1091.87,560.854 -1095,551.123C-1096.08,548.479 -1095.76,548.873 -1131.9,548.873C-1134.66,571.544 -1131.9,603.016 -1133.1,677.873C-1134.1,750.616 -1108.61,741.071 -1124.4,763.393C-1133.39,775.911 -1124.33,790.212 -1136.5,799.413C-1140.3,802.303 -1150.6,805.913 -1154.8,805.803C-1156.3,805.773 -1158.6,805.303 -1160,804.753ZM-1195.2,490.113C-1196.5,490.543 -1197.6,502.883 -1196.6,505.583C-1193.94,512.526 -1192.93,489.354 -1195.2,490.113ZM-1046.6,500.793C-1040.54,492.099 -1046.89,468.364 -1049.4,486.493C-1049.7,488.913 -1050.6,491.933 -1051.5,493.213C-1053.2,495.853 -1052.5,504.883 -1050.6,504.853C-1050,504.833 -1048.2,503.013 -1046.6,500.793ZM-1204.1,471.823C-1204.1,471.822 -1198.3,374.263 -1198.3,374.263C-1198.57,373.922 -1209.56,377.873 -1211.2,377.873C-1215.41,377.873 -1216.43,390.749 -1235.5,385.663C-1245.97,382.872 -1240.9,387.951 -1235.4,407.373C-1233.1,415.983 -1207.2,476.813 -1205.8,476.853C-1205.5,476.863 -1204.7,474.603 -1204.1,471.823ZM-1055,464.493C-1055,463.183 -1053.8,459.513 -1052.4,456.343C-1044.73,439.827 -1061.24,393.392 -1065.6,357.373C-1067.2,344.563 -1070.3,331.143 -1072.5,328.213C-1076.3,322.983 -1077.9,350.673 -1074.6,364.873C-1064.43,408.978 -1076.68,389.646 -1063.3,441.013C-1057.3,464.563 -1055,471.003 -1055,464.493ZM-1351.8,390.873C-1348.5,388.123 -1345.5,385.873 -1345,385.873C-1343.41,385.873 -1341.28,372.552 -1348.4,349.073C-1354.64,329.645 -1352.74,320.36 -1360,312.733C-1369.14,303.19 -1371.09,312.392 -1382.1,322.593C-1387.9,328.023 -1397,342.533 -1397,346.313C-1397,347.443 -1396.3,349.243 -1395.5,350.313C-1393.13,353.493 -1395.16,353.616 -1391.6,358.273C-1387.26,363.99 -1386.39,369.556 -1377.8,378.873C-1360.55,397.542 -1362.07,399.399 -1351.8,390.873ZM-1164.2,362.123C-1158.5,352.723 -1157.9,350.553 -1158,341.403C-1158.25,330.421 -1157.6,324.31 -1159.6,321.483C-1161.94,318.176 -1160.24,313.251 -1162,315.873C-1162.53,316.741 -1170.02,368.873 -1168.7,368.873C-1168.4,368.873 -1166.4,365.833 -1164.2,362.123ZM2563.5,804.553C2557.3,801.732 2555.78,795.486 2559.6,790.913C2562.8,787.143 2565,777.093 2564.8,767.423C2564.8,754.035 2567.01,752.494 2564.7,745.233C2564.4,744.233 2557.57,711.873 2554.9,711.873C2551.98,711.873 2546.91,743.113 2546,746.873C2536.61,786.943 2551.54,796.296 2522.3,796.353C2495.37,796.415 2513.71,779.385 2518,757.473C2528.12,708.43 2533.93,728.833 2536.6,673.873C2537.9,645.04 2530.48,657.042 2525.5,602.373C2521.58,557.535 2514.49,554.554 2512.5,541.563C2512.1,539.603 2511.2,537.783 2510.5,537.513C2508.2,536.633 2499.7,496.663 2497.8,477.943C2496.5,465.083 2495.4,462.713 2489.2,459.373C2485.15,457.198 2483.89,454.332 2472,430.373C2471.63,390.624 2463.84,363.543 2473.9,338.583C2481.1,320.63 2487.44,259.571 2501.1,245.913C2506.14,241 2505.96,238.451 2512.5,229.873C2532.81,203.384 2507.72,146.863 2553.6,134.76C2568,130.958 2579.4,134.039 2588.6,144.171C2594.9,151.131 2596.2,154.51 2601.6,176.539C2610.27,212.467 2615.99,220.04 2617.6,241.153C2618.4,251.243 2618.2,251.013 2631,257.313C2649.89,266.593 2651.23,271.223 2649.8,339.373C2648.8,388.141 2657.3,387.192 2646.5,424.763C2639.17,450.035 2648.02,443.468 2630.9,465.503C2623.66,474.881 2622.47,480.301 2618.5,484.873C2614.42,489.12 2608.37,525.943 2606,531.503C2605,534.086 2599.82,535.315 2596.5,536.373C2577,592.646 2588.54,596.506 2580.5,633.853C2576.94,650.14 2576.95,644.493 2578,666.383C2578.9,686.733 2582.8,716.913 2585.8,726.523C2587.7,732.603 2596.6,745.873 2598.7,745.873C2599.4,745.873 2600.4,746.793 2601,747.913C2601.9,749.613 2601.2,751.843 2596.4,761.313C2584.02,786.28 2593.95,786.288 2591.4,797.493C2590.5,801.043 2590,801.523 2585.2,803.113C2577.9,805.573 2567.3,806.273 2563.5,804.553ZM2625.1,404.373C2623.14,369.529 2630.31,379.319 2621,337.873C2617.66,322.275 2614.37,295.906 2610.1,317.063C2606.53,333.312 2597.1,330.146 2595.5,339.733C2592.1,361.548 2617.26,398.412 2622.6,435.213C2623.2,439.673 2623.4,439.923 2624.9,438.423C2626.7,436.527 2626.61,434.322 2625.1,404.373ZM2507.2,366.373C2507.2,355.163 2505.2,332.453 2504,329.373C2503.3,327.683 2502.8,328.233 2500.7,332.973C2497.2,340.783 2496.3,344.883 2495.5,356.373C2493.44,393.979 2486.6,401.334 2496.3,422.373C2500.33,371.9 2507.45,390.339 2507.2,366.373ZM-1750.8,799.363C-1780.94,784.347 -1774.87,778.908 -1769.9,765.783C-1767.3,758.943 -1766,753.993 -1766.2,751.783C-1766.57,747.992 -1766.7,748.884 -1772.5,764.373C-1777.21,764.547 -1780.8,764.679 -1785.5,764.853C-1793.86,753.487 -1794.38,754.061 -1788.7,748.293C-1769.01,728.309 -1781.23,710.361 -1755.4,698.843C-1747.43,695.256 -1747.95,695.738 -1745.3,682.373C-1717.35,547.121 -1670,620.475 -1713.7,529.873C-1722.12,512.643 -1725.86,502.152 -1727.4,498.103C-1728.4,498.001 -1738.13,497.113 -1738.6,496.613C-1741.01,494.154 -1741,453.076 -1741,452.063C-1775.63,439.887 -1791.51,463.369 -1794.7,441.143C-1798.09,416.839 -1802.51,363.214 -1797.5,338.463C-1793.2,316.483 -1778.3,272.063 -1769.3,254.653C-1759.08,234.827 -1755.14,234.333 -1741.5,231.223C-1732.42,200.996 -1719.63,157.671 -1717.1,153.026C-1710.9,141.076 -1694.6,131.871 -1679.8,131.871C-1668.7,131.871 -1664.9,136.195 -1658,156.539C-1643.03,201.146 -1638.2,205.486 -1633.4,218.243C-1631.8,222.653 -1631.5,238.443 -1633,239.353C-1633.5,239.683 -1630.3,244.323 -1625.9,249.663C-1602.71,277.616 -1617.19,277.333 -1597.4,319.333C-1596.1,321.933 -1594.6,323.493 -1593,323.873C-1589.9,324.593 -1589.3,327.383 -1591.5,329.893C-1594.88,333.649 -1588.19,334.762 -1589.9,339.193C-1590.3,340.393 -1590.3,344.743 -1590,348.873C-1589.6,352.993 -1589.7,359.673 -1590.2,363.703C-1591.81,376.786 -1585.82,388.654 -1591.4,399.033C-1598.04,411.767 -1581.8,423.732 -1601.2,425.673C-1603.9,425.923 -1606.2,426.453 -1606.5,426.853C-1607.4,428.263 -1602.9,458.503 -1600.4,467.373C-1596.18,483.082 -1595.44,483.093 -1616.3,485.373C-1628.12,519.084 -1642.64,571.078 -1639.9,608.873C-1638.37,633.37 -1662.11,709.346 -1662.3,732.873C-1662.55,759.676 -1656.48,749.268 -1656.9,781.323C-1657.11,799.642 -1657.45,800.37 -1662.8,801.823C-1666.37,802.827 -1680.56,804.302 -1691,799.973C-1691,791.533 -1691.28,777.712 -1689.4,767.373C-1685.55,743.225 -1695.11,744.716 -1685.3,733.103C-1685.48,713.64 -1686.05,645.882 -1686.3,644.033C-1686.4,643.293 -1691,649.593 -1696.6,658.033C-1723.62,699.218 -1743.47,730.523 -1723.1,775.263C-1718.97,784.458 -1718.88,783.94 -1725.2,795.543L-1730.5,804.873C-1737.7,804.873 -1738.38,805.602 -1750.8,799.363ZM-1741.1,416.233C-1733.82,407.129 -1752,323.188 -1752,300.703C-1752,298.263 -1752.4,296.873 -1752.9,297.423C-1753.67,298.423 -1767.35,334.661 -1766.4,340.713C-1765.28,348.952 -1769.79,345.538 -1765.5,353.033C-1760.35,361.835 -1765.46,381.882 -1761.6,387.093C-1756.4,394.213 -1753.8,398.943 -1752.4,403.573C-1749.78,412.583 -1747.81,406.568 -1745.9,414.443C-1744.57,419.828 -1743.9,419.916 -1741.1,416.233ZM-1622.6,364.123C-1620.8,331.921 -1618.41,334.095 -1630.2,314.423C-1640.69,296.91 -1647.21,288.997 -1643.1,338.693C-1642,351.413 -1638.9,358.473 -1630.3,367.493C-1627.1,370.853 -1624.2,373.663 -1623.8,373.743C-1623.5,373.813 -1622.9,369.483 -1622.6,364.123ZM-963.504,803.823C-974.004,802.173 -975.804,797.303 -967.404,793.063C-961.816,790.246 -950.503,780.893 -946.204,777.443C-943.034,756.204 -943.219,756.81 -934.304,749.373C-931.695,663.645 -923.07,649.998 -918.494,615.873C-915.904,596.367 -920.919,612.165 -919.604,584.043C-915.898,503.553 -907.155,493.812 -916.404,478.693C-925.754,463.403 -925.374,463.873 -928.204,463.873C-931.572,463.873 -930.38,466.966 -949.004,403.373C-949.33,337.602 -946.979,369.113 -943.504,342.873C-942.399,334.504 -932.004,305.884 -932.004,302.523C-932.004,290.08 -915.871,252.624 -915.514,251.623C-913.381,245.571 -915.998,247.7 -897.894,242.303C-863.705,232.111 -862.925,234.757 -848.874,224.403C-849.316,217.591 -849.89,205.411 -851.754,198.513C-854.762,187.304 -850.393,194.59 -851.844,168.871C-853.397,140.989 -849.744,140.727 -830.744,131.723C-823.455,134.453 -826.161,133.441 -818.874,136.164C-810.373,131.388 -810.304,130.547 -801.434,134.744C-785.334,142.361 -777.252,160.048 -778.254,174.641C-778.986,185.02 -792.274,223.798 -798.004,226.873C-804.223,230.209 -793.709,238.339 -789.184,239.693C-779.494,242.603 -750.344,258.353 -747.154,262.413C-744.474,265.813 -742.674,275.023 -743.854,279.293C-745.364,284.772 -742.82,290.553 -743.134,309.373C-743.402,327.09 -740.004,343.794 -740.004,352.453C-740.004,361.919 -734.907,369.054 -738.114,375.083C-738.944,376.623 -738.924,378.093 -738.034,380.793C-736.319,385.956 -739.96,418.447 -743.964,433.973C-752.353,466.553 -740.897,482.245 -754.004,471.873C-775.835,454.555 -768.957,587.533 -780.434,617.713C-783.714,626.328 -784.766,622.205 -785.454,716.873C-785.857,769.91 -785.995,763.662 -781.504,780.353C-777.551,783.394 -767.239,791.543 -763.014,793.633C-755.625,797.328 -758.226,804.891 -780.504,803.483C-811.818,801.493 -795.547,794.447 -814.314,794.303C-823.757,794.211 -826.066,792.681 -829.794,791.063C-830.261,782.61 -830.849,770.75 -831.994,758.263C-834.863,726.584 -827.582,647.007 -825.964,640.823C-824.372,634.702 -831.565,591.036 -833.004,571.873C-840.685,469.499 -843.986,536.999 -855.354,567.123C-861.692,583.827 -859.979,599.333 -865.864,617.873C-868.904,627.443 -870.314,634.353 -871.494,645.373C-877.506,701.509 -894.191,790.245 -903.504,793.613C-912.238,796.749 -923.345,794.081 -928.104,798.543C-929.604,799.883 -932.904,801.643 -935.604,802.453C-941.904,804.343 -955.804,805.023 -963.504,803.823ZM-831.574,292.933C-830.714,284.136 -826.949,274.816 -824.984,269.423C-825.29,268.932 -831.004,259.869 -831.004,259.293C-831.004,258.313 -824.384,254.883 -822.504,254.883C-821.404,254.883 -819.164,255.953 -817.534,257.253C-811.333,262.224 -821.192,260.509 -816.424,274.383C-814.396,280.253 -813.187,291.352 -812.424,297.373C-796.85,267.743 -791.886,264.262 -797.814,241.873C-801.024,229.743 -800.834,230.013 -803.074,234.553C-805.244,238.933 -820.344,254.263 -821.934,253.713C-823.344,253.223 -837.614,236.153 -840.814,231.153C-843.634,226.723 -846.514,224.983 -848.214,226.683C-849.874,228.343 -851.974,238.923 -851.984,245.693C-852.03,261.225 -834.922,309.354 -833.034,302.873C-832.634,301.493 -831.984,297.023 -831.574,292.933ZM1230.83,803.923C1222.31,802.323 1221.61,798.317 1209.83,796.763C1191.31,794.38 1204.13,794.417 1191.23,774.553C1182.33,760.888 1182.81,763.878 1185.23,738.203C1189.1,695.955 1186.48,732.463 1178.03,656.373C1177.36,650.872 1174.79,623.5 1165.53,605.073C1161.73,597.288 1144.99,550.74 1144.93,550.623C1143.31,547.746 1129.33,549.057 1128.33,549.643C1127.13,550.403 1126.83,553.393 1125.13,582.873C1122.39,631.58 1119.51,631.213 1122.43,643.593C1123.26,647.244 1130.29,706.263 1126.63,715.913C1125.62,718.366 1134.6,726.837 1140.43,738.183C1142.15,741.547 1148.16,748.646 1136.83,766.813C1128.78,779.87 1142.51,786.965 1121.43,789.843C1116.53,790.513 1110.33,792.093 1107.53,793.353C1096.47,798.389 1066.63,801.139 1064.44,792.353C1063.07,786.957 1078.36,771.873 1079.63,771.873C1081.57,771.873 1082.01,768.371 1086.33,764.843C1089.43,762.163 1089.83,758.143 1086.83,758.633C1086.03,758.783 1084.83,758.333 1084.33,757.633C1083.23,756.353 1079.83,724.073 1078.03,698.373C1075.69,662.437 1079.21,642.938 1072.53,609.963C1070.61,600.193 1065.03,556.443 1065.03,550.903C1065.03,549.266 1046.52,550.47 1045.5,548.823C1044.79,547.679 1048,517.553 1047.88,517.453C1042.25,512.72 1038.85,514.583 1032.28,502.163C1028.69,495.383 1028.03,493.233 1028.03,488.333C1028.03,484.203 1027.52,481.973 1026.28,480.593C1024.14,478.232 1023.41,468.767 1022.14,457.373C1022.81,478.615 1022.56,470.734 1023.23,491.933C1011.27,509.895 1011.27,509.328 1006.75,512.883C1006.62,524.263 1005.87,595.076 1005.75,606.483C1000.51,609.91 996.48,609.765 1000.51,626.373C1006.06,649.435 992.152,705.876 991.736,728.483C991.335,752.991 1014.29,793.026 999.636,801.973C994.076,805.353 989.366,803.993 981.466,796.703C976.076,791.743 975.356,789.503 974.026,773.663C970.788,735.163 956.663,744.013 973.176,716.863C965.315,665.979 960.373,663.663 964.046,634.683C965.378,624.164 964.735,623.918 962.526,617.373C951.217,617.004 956.079,617.163 944.776,616.793C945.404,622.478 945.932,624.123 946.966,659.373C948.091,697.744 947.411,692.904 957.276,707.373C954.906,755.354 964.146,754.95 957.336,767.833C952.026,777.913 944.186,779.403 936.816,771.733C922.848,757.191 942.196,725.97 926.966,685.373C897.037,605.588 915.081,613.79 900.526,610.923C882.106,607.289 884.55,607.917 882.936,562.873C881.628,525.778 881.56,527.466 877.626,526.483C854.795,520.763 861.14,453.043 858.516,426.373C852.644,366.346 864.517,375.81 859.396,345.873C856.714,330.237 856.151,280.977 863.546,268.293C866.196,263.713 872.526,259.093 878.526,257.353C881.766,256.413 883.126,255.193 885.716,250.923C897.928,230.785 883.398,229.509 885.876,184.373C887.086,162.415 889.256,155.841 898.596,145.949C905.156,138.991 918.436,130.871 923.246,130.871C931.244,130.871 935.36,136.871 941.266,136.871C944.186,136.871 945.846,137.977 952.186,144.136C963.376,155.001 968.306,164.708 972.126,183.373C974.706,195.923 974.936,220.933 972.596,233.873C968.906,254.39 971.121,253.16 982.386,255.313C1008.29,260.285 1005.24,271.125 1006.12,305.373C1008.22,387.539 1013.6,343.975 1016.03,401.683C1018.07,450.63 1022.49,458.32 1021.52,445.373C1017.86,396.338 1020.12,343.852 1030.58,295.593C1039.37,254.972 1037.91,253.292 1062.33,243.393C1076.63,237.603 1077.73,236.913 1085.13,229.223C1096.87,216.827 1095.72,216.961 1097.23,194.163C1093.89,190.825 1085.3,183.544 1087.73,173.809C1089.95,166.109 1093.03,174.821 1093.03,163.519C1093.03,149.66 1097.33,141.839 1107.63,136.767C1116.73,132.288 1124.93,131.753 1132.33,135.154C1138.53,138.011 1146.43,144.734 1148.83,149.319C1150.83,153.206 1150.83,162.547 1148.73,170.121C1147.23,175.651 1147.33,175.871 1149.13,175.871C1153.63,175.871 1150.03,190.083 1144.23,194.823C1140.73,197.723 1140.73,197.883 1140.73,205.323C1140.73,214.97 1138.74,211.541 1154.83,223.333C1166.83,232.063 1169.13,233.303 1176.83,235.423C1187.23,238.293 1196.83,242.883 1201.43,247.203C1206.03,251.502 1206.42,253.646 1230.33,342.373C1230.33,380.54 1231.51,381.012 1210.83,456.693C1227.89,531.794 1230.08,539.922 1228.53,542.373C1227.03,544.733 1221.23,546.683 1215.33,546.793C1208,546.92 1210.74,545.52 1213.03,575.873C1214.83,597.576 1217.58,596.986 1218.43,609.373C1222.02,662.001 1227.7,681.582 1233.13,703.873C1251.36,779.219 1242.94,769.274 1254.23,780.023C1255.73,781.483 1257.03,783.343 1257.03,784.163C1257.03,784.983 1257.63,785.893 1258.43,786.183C1260.27,786.913 1268.06,799.036 1263.53,802.833C1261.73,804.323 1237.53,805.133 1230.83,803.923ZM1046.64,489.073C1043.82,489.473 1043.41,493.493 1045.54,499.903C1050.46,514.752 1051.35,488.382 1046.64,489.073ZM1010.22,495.283C1010.05,490.92 1008.8,487.022 1007.69,496.813C1007.12,501.853 1007.2,502.133 1008.72,500.613C1009.72,499.613 1010.3,497.523 1010.22,495.283ZM1006.98,457.373C1007.02,443.7 979.845,362.75 992.496,408.753C996.495,423.289 1001.66,452.772 1004.21,468.343C1005.42,466.136 1006.96,464.219 1006.98,457.373ZM891.666,391.603C899.818,375.367 891.446,358.814 887.306,344.373C884.799,436.143 873.13,428.304 891.666,391.603ZM1348.33,804.213C1344.93,802.855 1350.39,800.129 1341.83,801.523C1338.93,801.993 1328.93,802.253 1319.63,802.103C1296.86,801.755 1298.39,801.023 1300.03,791.133C1292.63,794.595 1293.96,794.886 1281.63,793.323C1265.13,791.231 1272,790.568 1263.83,785.503C1259.61,783.078 1262.38,781.84 1258.43,780.003C1256.13,778.983 1255.93,778.383 1256.43,775.593C1259.23,760.523 1259.43,753.373 1259.53,665.373C1259.53,467.286 1279.21,518.405 1252.03,492.763C1252.89,481.702 1252.61,478.85 1258.03,464.873C1271,432.122 1267.83,395.669 1281.43,351.513C1290.3,321.572 1272.53,319.499 1283.23,297.713C1291.65,280.761 1283.54,258.506 1293.23,249.193C1308.12,235.288 1328.66,245.786 1333.13,221.253C1334.62,213.118 1333.53,217.508 1327.53,205.613C1325.93,202.233 1324.03,199.323 1323.43,199.133C1322.03,198.723 1320.63,206.633 1321.63,209.443C1322.49,212.128 1320.43,210.464 1319.43,202.883C1318.05,191.631 1315.23,190.068 1314.93,197.123C1314.93,200.531 1313.23,211.491 1313.23,193.873C1313.33,186.173 1312.93,181.58 1312.13,179.977C1307.71,172.025 1323.61,137.368 1340.63,133.849C1348.13,132.294 1363.03,133.374 1368.73,135.887C1377.54,139.692 1379.85,151.331 1384.33,161.172C1389.5,172.692 1385.23,170.068 1385.23,189.873C1385.33,194.793 1384.83,197.343 1383.23,200.353C1382.03,202.543 1381.03,205.323 1381.03,206.513C1381.03,209.533 1375.63,213.743 1370.83,214.513C1367.03,215.133 1366.83,215.273 1367.43,218.253C1368.43,223.083 1374.13,231.883 1378.03,234.443C1401.38,250.176 1417.71,215.614 1418.13,356.873C1418.13,400.021 1395.43,428.165 1395.73,450.873C1396.25,475.442 1391.85,476.436 1396.33,499.373C1400.51,520.446 1423.92,772.091 1423.93,772.113C1428.9,785.101 1399.03,777.248 1399.03,783.453C1399.03,788.402 1394.53,782.566 1394.53,791.353C1394.53,805.776 1367.23,797.323 1366.23,802.023C1365.29,806.251 1349.33,804.63 1348.33,804.213ZM1263.53,481.873C1262.03,483.143 1261.53,487.003 1262.73,488.223C1264.65,490.224 1266.53,479.428 1263.53,481.873ZM1273.03,475.873C1272.04,477.486 1271.46,485.682 1273.03,480.873C1273.51,479.213 1274.87,473.012 1273.03,475.873ZM1279.03,448.733C1281.44,434.996 1280.6,436.594 1278.33,441.463C1275.81,447.368 1274.44,474.831 1279.03,448.733ZM1394.03,378.463C1396.63,370.793 1396.73,358.273 1394.13,345.733C1390.06,326.697 1389.04,304.355 1385.53,308.023C1383.53,310.033 1376.33,333.693 1374.53,343.673C1368.93,375.945 1382.03,373.677 1382.03,396.333C1382.03,402.283 1383.83,409.483 1385.03,408.243C1386.33,406.676 1391.14,386.287 1394.03,378.463ZM1935.03,804.193C1925.48,802.201 1934.6,796.571 1925.83,796.963C1920.9,797.189 1916.11,795.647 1912.83,794.753C1914.28,750.24 1907.24,778.752 1921.83,725.793C1915.34,702.441 1926.24,709.975 1919.53,685.373C1915.13,669.763 1915.33,653.163 1920.13,638.283C1920.83,635.983 1920.53,632.463 1918.93,624.283C1917.03,614.643 1916.83,611.183 1917.33,594.633C1918.73,553.642 1902.08,536.392 1900.33,525.283C1895.4,494.108 1884.66,634.319 1885.93,643.003C1886.05,644.013 1891.37,695.41 1892.33,725.283C1904.21,752.792 1904.03,754.466 1904.03,792.973C1892.03,797.944 1892.03,794.227 1892.03,798.853C1892.03,801.253 1891.53,801.983 1889.33,802.603C1886.03,803.503 1860.33,803.333 1855.23,802.383C1852.03,801.773 1851.83,801.563 1852.43,798.573C1852.83,796.833 1854.23,793.713 1855.53,791.643C1860.31,784.576 1854.75,790.947 1851.03,751.373C1847.67,717.514 1841.48,737.971 1840.03,641.373C1839.23,588.543 1837.93,571.633 1831.43,529.213C1830.64,523.457 1820.1,524.383 1815.23,520.133C1812.23,517.483 1808.03,503.543 1808.03,496.053C1808.03,490.373 1806.43,482.813 1803.93,477.373C1803,475.284 1798.42,414.438 1804.63,342.373C1806.68,315.556 1811.03,282.649 1811.03,270.853C1811.03,258.533 1810.94,259.204 1828.33,252.563C1848.53,244.853 1862.73,237.393 1865.73,232.973C1867.23,230.783 1868.03,230.173 1868.03,231.263C1868.03,244.953 1874.63,269.863 1876.73,264.123C1877.53,262.023 1878.73,262.703 1881.03,266.443C1883.53,270.433 1884.03,270.223 1886.43,264.033C1888.34,259.017 1888.1,259.797 1883.83,252.743C1891.62,242.832 1891.27,243.248 1899.53,250.783C1896.82,255.671 1897.85,253.855 1895.03,258.743C1901.12,282.636 1899.52,283.559 1907.93,268.093C1914.63,255.743 1917.43,245.073 1916.73,234.363C1915.93,222.303 1913.73,217.923 1911.23,223.373C1908.08,229.953 1893.99,241.423 1892.03,243.073C1873.39,231.534 1869.72,229.455 1869.23,221.973C1868.96,218.211 1865.6,205.997 1861.23,201.683C1859.53,200.093 1857.53,196.353 1856.23,192.423C1850.92,176.212 1857.55,184.821 1855.03,173.52C1851.45,155.297 1854.95,153.574 1859.63,147.371C1865.25,140.062 1874.69,131.927 1882.93,133.233C1893.04,134.859 1885.99,128.632 1900.53,135.995C1916.7,144.104 1915.18,146.617 1916.63,166.046C1917.03,172.172 1917.63,174.881 1918.63,175.265C1921.43,176.362 1919.23,193.263 1915.63,197.673C1914.33,199.203 1912.83,203.233 1912.13,206.963C1910.63,214.923 1911.63,217.823 1918.23,225.143C1922.53,229.913 1922.53,229.913 1938.03,233.843C1993.36,247.903 1975.01,233.708 1985.53,268.873C1985.83,269.948 1989.14,282.076 1990.13,285.863C2021.15,260.798 2034.54,241.438 2053.43,231.723C2065.18,225.715 2069.18,232.918 2072.33,227.713C2080.74,214.657 2085.41,171.232 2095.73,150.038C2110.95,118.075 2129.97,136.871 2137.13,136.871C2145.43,136.871 2152.43,143.719 2156.33,155.649C2158.53,162.343 2158.93,165.824 2159.53,181.805C2160.73,217.223 2166.13,250.493 2171.43,255.093C2172.53,256.123 2176.73,259.373 2180.53,262.313C2199.25,276.473 2200.96,286.19 2214.53,296.653C2231.28,309.241 2244.03,325.716 2244.03,319.163C2244.03,317.295 2261.15,276.663 2264.53,267.373C2267.43,259.593 2278.43,248.873 2283.53,248.873C2285.48,248.873 2288.76,244.56 2290.33,242.693C2303.96,243.537 2298.86,243.22 2312.83,244.093C2317.74,239.043 2315.92,240.919 2320.83,235.863C2320.28,228.567 2319.06,213.918 2316.83,221.063C2316.13,222.923 2316.43,225.143 2317.43,228.343C2319.39,233.857 2319.58,239.248 2317.33,232.373C2315.33,225.713 2314.53,225.053 2312.63,228.703C2309.88,233.931 2311.18,235.689 2314.03,241.373C2312.38,239.43 2307.62,235.445 2311.53,226.283C2314.32,219.288 2310.12,218.38 2314.03,209.133C2320.15,194.959 2306.12,188.206 2322.03,158.871C2326.28,150.69 2330.78,130.239 2350.13,132.111C2357.43,132.809 2361.83,137.634 2365.03,148.607C2366.91,154.861 2369.51,153.263 2373.73,160.613C2381.19,173.237 2369.3,239.11 2380.33,243.193C2381.33,243.563 2382.83,245.593 2383.73,247.713C2388.75,261.036 2416.26,245.247 2424.43,310.943C2429.89,355.795 2447.28,355.132 2459.43,441.373C2462.33,462.303 2464.43,486.563 2463.73,492.443C2461.34,514.038 2484.06,489.341 2500.03,520.923C2507.73,536.213 2510.83,549.573 2507.93,555.023C2507.13,556.493 2507.33,562.433 2508.53,576.953C2512.04,619.726 2511.7,612.99 2444.33,640.653C2426.87,640.086 2413.94,639.937 2411.23,638.223C2409.43,637.093 2408.93,637.063 2408.63,638.083C2405.05,650.486 2400.42,692.44 2392.53,708.373C2388.59,716.549 2388.24,721.942 2386.03,736.623C2393.28,775.02 2394.86,779.321 2385.13,788.193C2381.93,791.073 2380.23,791.863 2377.23,791.853C2372.73,791.823 2365.53,788.713 2364.23,786.163C2362.23,782.453 2360.93,768.633 2362.03,762.843C2363.29,756.78 2362.32,751.275 2359.63,733.083C2362.08,727.57 2367.88,717.017 2368.43,693.373C2368.75,673.634 2371.3,685.232 2369.83,668.373C2368.4,652.678 2370.93,602.333 2370.93,602.333C2365.12,577.165 2377.37,520.437 2371.43,514.943C2370.28,513.843 2357.68,513.494 2355.03,513.373C2343.62,539.441 2333.19,552.946 2325.13,571.673C2311.23,605.143 2310.13,608.203 2311.13,610.123C2312.45,612.437 2311.1,611.001 2309.93,630.373C2308.4,655.155 2304.22,660.574 2303.03,677.893C2301.43,697.055 2297.91,691.059 2294.43,711.873C2292,727.411 2290.1,723.922 2294.43,732.553C2305.37,754.208 2290.36,745.135 2290.03,782.153C2290.03,788.343 2289.73,790.063 2288.43,790.543C2282.71,792.72 2286.41,771.842 2284.13,770.423C2280.99,768.522 2277.75,798.35 2276.03,800.363C2274.63,802.043 2268.03,803.673 2259.23,804.483C2249.43,805.403 2247.63,804.773 2245.63,799.603C2243.3,793.493 2243.2,793.397 2249.03,784.703C2261.46,766.588 2267.21,717.79 2263.63,712.443C2261.63,709.313 2261.53,705.963 2263.53,703.133C2264.25,702.131 2263.2,597.959 2271.43,588.983C2274.7,585.363 2289.97,506.534 2289.83,506.343C2288.56,505.519 2277.03,500.137 2277.03,498.943C2277.03,498.443 2281.83,490.753 2287.73,481.853C2298.13,466.063 2298.43,465.603 2296.93,463.023C2295.83,461.103 2294.53,460.283 2292.03,460.043C2285.83,459.443 2266.53,444.923 2258.03,434.483C2248.39,422.741 2235.29,418.199 2233.43,381.373C2231.94,355.621 2242.35,347.228 2232.93,355.103C2227.03,360.093 2199.53,376.873 2197.33,376.873C2196.33,376.863 2193.63,377.873 2191.33,379.113C2178.07,386.121 2170.52,362.022 2182.03,400.243C2198.09,455.99 2188.35,474.069 2180.13,516.433C2177.15,532.765 2168.56,563.454 2168.53,563.633C2166.75,574.868 2163.87,556.849 2161.53,600.153C2160.34,620.233 2167.03,608.617 2163.63,618.693C2161.67,623.85 2143.86,694.56 2138.53,712.823C2130.08,742.287 2132.06,791.869 2125.23,798.023C2121.56,801.222 2106.35,806.325 2099.83,798.913C2095.12,793.739 2097.56,791.736 2100.03,771.373C2106.25,721.199 2107.15,760.777 2111.93,690.373C2114.26,654.848 2117.03,647.076 2118.63,625.323C2119.85,606.311 2125.34,611.102 2122.43,576.523C2121.73,568.923 2121.73,568.873 2118.93,568.873C2116.13,568.873 2116.03,569.013 2116.03,574.123C2116.03,586.015 2110.03,606.231 2110.03,616.403C2110.03,625.029 2106.57,629.17 2105.53,642.873C2104.92,653.466 2103.01,666.128 2100.53,688.373C2097.48,717.875 2093.15,704.301 2095.03,731.643C2096.13,747.023 2095.43,794.633 2093.93,798.463C2092.83,801.453 2086.53,804.213 2082.33,803.533C2078.13,802.853 2069.43,798.863 2066.03,796.123C2061.03,791.956 2065.96,740.992 2067.03,737.373C2071.1,724.175 2061.51,614.18 2066.83,608.583C2072.93,601.916 2076.66,568.916 2070.63,568.853C2066.63,568.823 2066.33,567.823 2065.73,551.373C2064.5,512.421 2055.55,509.66 2061.43,426.143C2064.89,374.791 2064.12,412.018 2026.73,382.593C2009.93,369.375 2018.94,380.041 2006.03,367.463C2005.47,461.433 2001.34,410.932 1995.53,455.303C1995.03,458.843 1994.13,460.953 1992.13,462.803C1984.72,469.677 1991.03,480.485 1991.03,483.513C1991.03,487.273 1980.62,489.331 1976.93,489.923C1979.76,575.926 1973.89,547.951 1972.03,654.373C1970.21,770.567 1970.7,757.861 1963.23,787.883C1968.93,792.618 1969.62,794.297 1973.03,800.853C1968.51,803.731 1969.57,804.257 1952.63,804.503C1944.33,804.623 1936.43,804.483 1935.03,804.193ZM2457.33,505.923C2458.51,504.685 2453.12,494.654 2447.83,498.023C2445.78,499.366 2441.7,497.095 2440.43,499.003C2439.43,500.643 2437.13,510.633 2437.63,511.143C2438.23,511.693 2456.33,506.883 2457.33,505.923ZM2308.03,436.623C2308.03,424.073 2305.82,423.834 2303.33,422.923C2300.13,421.763 2299.83,421.423 2300.43,418.523C2310.35,370.107 2300.04,364.462 2297.53,344.233C2296.73,337.503 2290.33,316.183 2288.83,315.253C2287.23,314.253 2284.63,317.623 2278.13,329.373C2268.14,347.686 2272.83,346.469 2268.43,360.643C2266.37,367.885 2268.1,367.106 2269.53,379.873C2271.8,403.541 2276.88,387.989 2282.43,411.603C2286.84,430.014 2290.45,423.461 2301.53,434.793C2305.93,439.363 2308.03,439.963 2308.03,436.623ZM2060.93,371.753C2068.8,369.109 2067.59,370.769 2061.13,353.203C2049.98,322.918 2040.33,319.922 2047.53,298.443C2050.64,288.869 2050.86,286.873 2045.83,286.873C2043.13,286.883 2040.93,288.283 2034.13,294.373C2021.53,305.651 2001.03,319.87 2001.03,321.443C2001.03,324.493 2021.23,350.133 2031.83,360.583C2046.13,374.663 2049.03,375.773 2060.93,371.753ZM2195.03,354.003C2207.08,345.143 2208.47,341.917 2212.13,336.543C2203.45,327.527 2171.48,302.903 2169.43,301.623C2167.83,300.613 2165.33,301.633 2164.43,303.703C2164.03,304.623 2163.63,310.093 2163.63,315.873C2163.53,325.553 2163.23,326.903 2160.33,333.183C2155.33,343.583 2155.73,353.873 2160.93,353.873C2161.83,353.873 2166.23,355.643 2170.53,357.793C2182.3,363.575 2182.72,363.106 2195.03,354.003ZM2363.83,226.373C2360.79,229.915 2356.61,233.533 2361.03,240.603C2366.31,249.345 2367.62,236.056 2363.83,226.373ZM2376.03,241.833C2376.03,241.833 2371.75,232.201 2370.63,226.803C2367.36,212.989 2367.94,220.867 2367.53,242.873C2369.12,242.873 2376.03,243.139 2376.03,241.833ZM2317.43,210.893C2315.12,208.655 2311.95,224.432 2316.03,215.393C2317.03,213.203 2317.63,211.173 2317.43,210.893ZM-2023.07,802.923C-2032.47,800.032 -2028.7,799.912 -2031.57,771.073C-2032.86,755.262 -2025.39,748.407 -2027.77,737.823C-2028.77,733.773 -2028.67,731.603 -2027.37,726.113C-2020.62,697.81 -2038.85,658.511 -2022.87,592.623C-2019.67,579.663 -2015.27,553.063 -2016.27,552.333C-2017.27,551.334 -2022.51,551.325 -2022.27,548.263C-2020.07,525.404 -2019.19,546.646 -2018.37,456.373C-2003.79,415.48 -1993.8,396.155 -2006.57,401.483C-2013.77,404.493 -2016.97,402.143 -2028.97,385.093C-2057.89,343.973 -2054.69,338.272 -2039.77,314.373C-2014.41,273.538 -2012.1,255.102 -1977.87,248.983C-1968.07,247.213 -1956.97,243.003 -1956.97,241.003C-1956.97,240.553 -1958.77,239.373 -1960.87,238.403C-1963.07,237.433 -1966.07,235.333 -1967.57,233.753C-1974.29,226.638 -1971.79,235.371 -1970.27,237.043C-1968.77,238.763 -1968.77,238.873 -1970.77,238.873C-1976.41,238.873 -1980.88,227.085 -1980.97,224.183C-1980.97,221.139 -1982.97,220.2 -1982.97,222.813C-1982.97,226.033 -1984.67,225.233 -1985.97,221.433C-1987.37,217.073 -1986.57,212.723 -1982.27,201.443C-1972.36,175.822 -1973.97,151.327 -1944.47,136.793C-1902.67,116.253 -1872.21,184.684 -1881.47,218.873C-1883.27,225.753 -1882.67,228.273 -1879.37,227.433C-1873.77,226.043 -1878.87,232.533 -1885.87,235.823C-1902.93,243.865 -1867.41,242.891 -1856.27,247.843C-1850.07,250.593 -1842.97,257.593 -1837.47,266.373C-1832.87,273.853 -1809.17,328.023 -1806.37,337.483C-1802.56,350.9 -1802.78,362.772 -1864.57,425.853C-1886.27,425.384 -1884.47,425.331 -1885.77,438.043C-1888.86,465.8 -1870.48,476.867 -1863.87,532.583C-1862.48,544.043 -1871.61,562.792 -1847.97,614.873C-1839.57,633.363 -1837.17,641.113 -1825.97,685.053C-1813.41,734.094 -1813.74,715.372 -1809.37,743.253C-1804.46,777.291 -1798.07,765.1 -1803.57,802.323C-1817.23,804.93 -1830.31,802.73 -1833.07,801.303C-1839.26,798.141 -1832.47,793.31 -1837.97,792.663C-1841.18,792.289 -1840.53,791.331 -1838.97,781.373C-1837.37,769.543 -1837.77,757.963 -1839.97,753.113C-1849.23,732.576 -1836.95,735.008 -1838.37,725.593C-1839.07,721.133 -1854.67,689.803 -1863.57,674.873C-1885.6,638.245 -1876.37,632.172 -1894.07,604.203C-1901.46,592.61 -1905.38,581.371 -1915.77,554.373C-1972.8,556.712 -1969.46,536.965 -1976.17,570.873C-1979.96,589.934 -1989.08,594.381 -1991.97,629.873C-1995.4,668.083 -2008.76,695.488 -2004.57,723.203C-2001.92,740.793 -2005.3,730.605 -2001.57,747.113C-1996.97,767.723 -1995.97,776.263 -1996.67,789.173L-1997.27,801.103C-2006.46,804.973 -2020.13,803.813 -2023.07,802.923ZM-1863.87,395.623C-1845.01,374.459 -1849.41,375.428 -1836.27,355.883C-1830.68,347.2 -1830.89,346.328 -1836.27,337.343C-1840.43,330.704 -1856.11,299.873 -1860.97,299.873C-1861.87,299.873 -1864.77,311.953 -1867.97,329.733C-1871.4,347.605 -1878.34,365.116 -1880.67,380.253C-1882.86,394.016 -1882.44,389.102 -1875.87,398.093C-1873.97,400.683 -1871.97,402.823 -1871.37,402.843C-1870.77,402.853 -1867.37,399.613 -1863.87,395.623ZM-1989.07,367.873C-1987.96,367.873 -1981.56,357.026 -1980.97,356.073C-1980.97,322 -1980.58,321.73 -1983.77,309.933C-1985.37,304.183 -1987.17,299.313 -1987.77,299.093C-1991.05,298.009 -2010.28,318.98 -2024.17,341.993C-2022.89,345.375 -2018,357.954 -2017.37,361.373C-2016.07,367.333 -2008.17,380.873 -2006.07,380.873C-2005.56,380.873 -1991.37,367.873 -1989.07,367.873ZM-1539.17,802.823C-1557.29,800.064 -1554.47,792.629 -1554.47,773.513C-1554.47,754.093 -1554.67,751.883 -1556.77,746.403C-1559.67,738.593 -1559.57,737.373 -1555.47,730.913C-1550.69,723.368 -1551.2,724.71 -1556.17,686.513C-1569.24,584.423 -1546.05,603.867 -1561.77,495.873C-1562.87,487.493 -1563.47,476.453 -1563.47,462.373C-1563.47,436.583 -1565.02,447.294 -1556.67,415.373C-1541.74,357.653 -1537.74,357.011 -1541.97,342.653C-1545.88,329.38 -1559.07,304.671 -1556.67,315.123C-1555.91,318.28 -1555.73,370.033 -1555.67,378.663C-1574.41,428.031 -1575.48,429.751 -1573.97,433.333C-1571.27,439.823 -1571.57,443.043 -1575.37,448.613C-1580.7,456.256 -1577.76,454.978 -1580.87,458.993C-1582.77,461.303 -1582.77,461.383 -1580.77,464.153C-1579.67,465.703 -1578.97,467.833 -1579.27,468.883C-1580.11,471.803 -1576.97,471.578 -1576.97,475.863C-1576.97,478.503 -1577.17,478.593 -1581.57,478.223C-1599.27,476.742 -1606.48,458.407 -1593.27,441.263C-1590.37,437.393 -1589.27,431.173 -1588.47,413.373C-1586.05,359.313 -1581.15,389.068 -1580.27,338.373C-1579.31,287.408 -1587.06,303.897 -1587.37,270.703C-1587.47,255.443 -1586.87,253.723 -1579.87,249.143C-1548.29,228.555 -1573.7,232.725 -1546.37,167.04C-1538.71,148.701 -1527.25,131.437 -1507.47,131.39C-1500.47,131.373 -1498.87,131.727 -1494.67,134.174C-1485.37,139.647 -1476.57,154.256 -1471.47,172.927C-1455.38,230.283 -1457.15,229.042 -1441.47,240.413C-1431.41,247.833 -1424.32,262.379 -1428.37,258.963C-1429.91,257.725 -1429.68,259.457 -1428.97,271.373C-1431.01,265.118 -1432.51,259.753 -1435.97,257.863C-1437.87,256.853 -1437.97,257.153 -1437.67,266.093C-1437.23,288.831 -1440.38,298.775 -1437.57,316.373C-1433.75,339.72 -1436.39,342.653 -1430.67,357.443C-1417.65,391.104 -1425.12,428.803 -1415.87,475.373C-1413.17,489.263 -1413.37,491.143 -1417.47,496.573C-1424.34,505.684 -1419.06,496.821 -1414.97,541.033C-1413.75,555.451 -1409.21,569.09 -1406.97,581.373C-1403.14,607.924 -1414.58,731.252 -1407.67,744.633C-1404.99,749.43 -1402.04,770.497 -1398.87,775.583C-1393.38,784.241 -1378.18,790.548 -1380.47,797.883C-1381.97,802.573 -1388.47,803.723 -1402.67,801.823C-1416.87,799.913 -1418.67,798.813 -1420.07,791.113C-1421.27,785.053 -1425.07,775.803 -1426.17,776.473C-1427.77,777.592 -1425.76,790.162 -1428.57,791.263C-1431.27,792.323 -1437.67,791.923 -1438.77,790.623C-1439.27,789.933 -1441.67,780.063 -1444.07,768.693C-1448.97,744.953 -1449.07,746.533 -1440.47,731.443C-1436.67,724.743 -1435.97,722.693 -1435.97,718.113C-1435.97,710.673 -1441.67,663.333 -1443.47,655.633C-1447.73,637.457 -1441.41,606.206 -1443.77,597.603C-1445.5,591.844 -1452.87,562.553 -1457.47,548.373C-1491.71,548.697 -1480.06,551.796 -1517.47,554.373C-1521.39,611.353 -1525.97,590.934 -1525.97,631.573C-1525.97,645.133 -1526.57,653.283 -1528.97,670.073C-1538.53,739.755 -1529.93,720.692 -1530.87,738.073C-1531.3,750.553 -1521.97,784.752 -1521.97,793.443C-1521.97,801.893 -1527.07,804.663 -1539.17,802.823ZM-1447.07,404.373C-1446.1,423.62 -1447,421.836 -1439.37,443.093C-1424.55,484.613 -1432.59,445.399 -1447.07,404.373ZM-640.974,797.273C-640.974,792.484 -646.974,794.857 -646.974,788.263C-646.974,778.735 -657.783,784.512 -651.864,767.013C-647.547,754.266 -653.466,769.339 -652.024,741.863L-651.214,726.373C-647.111,716.241 -643.978,708.505 -639.874,698.373C-639.596,679.716 -639.524,656.862 -637.744,647.373C-635.764,636.753 -636.334,589.123 -638.534,581.213C-643.802,562.36 -645.624,527.873 -645.624,527.873C-646.696,524.517 -661.282,552.967 -668.934,590.163C-671.879,604.488 -673.961,604.007 -674.014,609.573C-674.078,622.842 -679.496,618.25 -674.884,654.103C-670.075,691.858 -671.805,731.811 -665.494,742.353C-657.109,756.361 -658.124,769.346 -660.474,791.373C-691.587,796.623 -683.349,788.342 -692.884,795.273C-695.404,797.113 -698.484,798.933 -699.714,799.313C-704.014,800.633 -725.334,800.043 -733.474,798.373C-743.594,796.293 -744.794,795.263 -742.164,790.943C-736.162,781.061 -719.57,783.937 -711.084,772.023C-709.054,769.173 -709.004,768.763 -710.434,766.583C-717.106,756.368 -717.862,668.779 -718.144,655.373C-735.142,577.936 -729.37,627.758 -722.174,529.413C-728.838,520.554 -739.315,511.935 -733.154,488.383C-730.844,479.543 -731.264,474.683 -734.744,469.963C-739.574,463.413 -737.614,392.233 -731.804,363.373C-728.184,345.321 -732.22,344.081 -730.004,329.373C-722.694,280.834 -723.776,270.044 -719.454,261.973C-710.648,245.469 -719.797,253.941 -699.964,245.313C-674.997,234.496 -666.543,237.529 -657.884,225.593C-649.998,214.705 -660.974,214.752 -660.974,209.513C-660.974,208.253 -662.084,206.173 -663.444,204.903C-666.904,201.643 -668.334,196.603 -667.594,190.263C-665.91,175.998 -678.605,168.176 -670.394,151.76C-650.722,112.514 -598.097,136.91 -601.434,169.871C-603.481,190.034 -597.868,186.518 -604.454,197.333C-606.814,201.213 -607.894,204.043 -607.544,205.423C-606.106,211.217 -617.454,209.242 -607.914,224.703C-611.114,223.867 -611.974,223.296 -611.974,226.063C-611.974,232.085 -635.205,239.142 -630.434,242.443C-625.664,245.743 -625.664,245.813 -629.924,250.433C-634.694,255.603 -634.914,257.643 -631.874,268.133C-627.137,284.411 -630.002,367.091 -630.474,385.293C-640.815,393.266 -636.972,390.302 -647.324,398.293C-660.843,383.631 -661.974,382.974 -661.974,378.373C-661.974,373.163 -658.374,328.563 -656.454,309.923C-650.197,249.301 -635.857,259.999 -649.154,246.073C-647.712,245.091 -641.82,240.873 -640.304,240.873C-635.942,240.873 -641.337,235.985 -654.914,222.473C-663.432,242.904 -657.97,345.044 -666.524,397.333C-669.834,417.563 -669.934,416.603 -664.384,417.433C-652.884,419.163 -611.324,415.553 -608.344,412.573C-608.014,412.243 -609.424,404.413 -611.484,395.173C-624.316,337.558 -607.974,239.19 -607.974,225.913C-604.354,229.84 -601.112,234.08 -593.204,237.773C-551.528,257.147 -552.955,257.927 -552.024,261.083C-551.414,263.113 -550.494,265.053 -549.974,265.373C-542.376,270.101 -540.682,329.803 -536.994,370.373C-533.045,414.224 -537.492,412.435 -538.664,456.373C-539.024,469.823 -539.314,471.883 -541.514,476.313C-545.09,483.466 -543.193,484.563 -546.344,485.993C-548.244,486.863 -548.844,488.103 -549.334,492.223C-549.674,495.053 -549.964,498.963 -549.964,500.903C-549.974,505.723 -556.254,518.613 -559.184,519.833C-561.393,520.745 -577.594,524.163 -577.594,524.163C-577.594,524.163 -583.413,557.231 -587.144,564.193C-587.714,565.253 -589.064,573.603 -590.134,582.743C-597.64,646.541 -580.848,747.836 -609.784,776.773C-617.853,784.842 -580.336,801.757 -619.584,803.343C-625.574,803.583 -632.134,803.423 -634.174,802.993C-635.174,802.993 -640.974,801.71 -640.974,797.273ZM-717.174,507.673C-715.684,506.183 -715.524,491.873 -716.994,491.873C-718.694,491.873 -719.974,496.633 -719.974,502.933C-719.974,508.903 -719.394,509.893 -717.174,507.673ZM-572.504,498.923C-569.21,492.564 -572.108,490.003 -575.904,485.373C-575.948,497.301 -576.443,506.55 -572.504,498.923ZM-571.894,368.373C-572.464,366.173 -572.944,362.123 -572.964,359.373C-573.009,353.892 -575.917,342.429 -576.264,366.493C-576.544,385.431 -571.112,408.386 -570.044,411.863C-568.495,416.903 -569.36,445.03 -568.224,452.483C-566.071,466.469 -567.316,386.206 -571.894,368.373ZM-488.754,802.313C-493.344,799.093 -491.274,793.233 -479.134,775.103C-464.228,752.861 -464.019,742.844 -455.384,728.133C-448.704,716.733 -445.254,694.593 -446.624,671.823C-448.326,642.799 -442.279,609.463 -447.674,594.373C-459.593,593.994 -465.415,593.533 -468.904,595.333C-482.212,602.273 -474.569,589.875 -487.944,481.873C-493.727,435.141 -496.474,385.757 -496.474,426.703C-496.474,442.053 -496.534,442.493 -499.414,448.173C-502.984,455.223 -506.454,458.873 -509.614,458.873C-512.824,458.873 -512.674,461.203 -508.974,469.033C-503.815,479.952 -507.309,484.195 -505.004,490.283C-504.356,492.006 -502.3,503.058 -505.164,503.643C-507.214,504.073 -509.644,499.763 -510.554,494.113C-511.444,488.503 -512.484,487.103 -514.694,488.473C-518.894,491.073 -516.884,498.343 -510.884,502.313C-505.03,506.179 -508.199,506.451 -503.974,507.373C-501.554,507.903 -500.974,508.543 -500.974,510.713C-500.974,515.713 -503.734,516.083 -512.564,512.243C-522.499,507.903 -521.706,508.56 -525.934,498.633C-532.24,483.839 -525.427,480.675 -526.274,458.873C-526.992,440.465 -538.986,456.327 -530.794,433.313C-523.781,413.547 -528.658,380.042 -523.864,361.563C-519.274,343.794 -525.642,291.343 -520.334,265.433C-519.549,261.582 -508.21,247.976 -498.834,247.893C-495.844,247.873 -494.344,245.333 -496.084,243.243C-496.964,242.173 -496.854,241.873 -495.564,241.873C-493.994,241.873 -489.974,234.393 -489.974,231.473C-489.974,229.587 -495.974,226.715 -495.974,223.883C-495.974,222.043 -495.854,222.033 -493.014,223.663C-488.655,226.17 -488.646,225.688 -485.544,208.873C-480.884,183.573 -472.314,155.116 -466.644,146.142C-457.602,131.823 -440.308,125.66 -418.464,138.912C-402.533,148.567 -396.06,142.616 -390.924,166.827C-383.495,201.727 -399.198,216.985 -402.364,230.163C-403.443,234.623 -404.393,229.942 -405.334,235.643C-405.784,238.413 -406.724,239.813 -408.954,241.073C-413.034,243.383 -413.184,247.543 -409.224,248.493C-367.815,258.405 -394.198,305.311 -361.624,404.873C-359.734,410.643 -357.174,419.193 -355.924,423.873C-353.479,433.082 -342.974,455.263 -342.974,455.263C-342.974,456.51 -346.901,460.459 -347.754,461.373C-345.735,473.676 -344.193,483.07 -342.174,495.373C-350.037,515.054 -349.387,511.216 -347.874,526.663C-383.57,538.614 -373.81,538.701 -381.824,521.373C-381.824,564.079 -379.444,573.338 -381.644,575.953C-384.674,579.564 -380.654,582.863 -385.974,584.723C-397.785,588.835 -372.394,609.239 -365.964,642.893C-364.62,649.969 -353.21,699.864 -338.424,713.873C-334.115,717.949 -331.073,722.33 -328.914,725.253C-330.03,752.573 -330.499,757.271 -328.524,768.253C-327.564,773.583 -327.034,778.963 -327.344,780.213C-328.233,783.771 -340.66,799.477 -354.574,786.553C-358.664,782.753 -358.974,779.633 -357.064,762.243C-354.524,739.183 -358.824,723.663 -375.804,694.553C-395.152,661.403 -407.424,636.983 -407.424,636.983C-407.424,636.983 -410.899,663.017 -423.944,698.873C-434.35,727.487 -433.371,727.635 -433.474,754.373C-433.963,755.375 -448.974,785.764 -448.974,790.743C-448.974,794.383 -452.704,797.533 -459.184,799.373C-475.624,804.063 -484.934,804.983 -488.754,802.313ZM-410.594,332.123C-410.964,328.133 -411.624,324.873 -412.074,324.873C-413.987,324.873 -422.901,360.251 -419.764,365.563C-387.184,420.628 -382.112,451.876 -390.944,415.873C-390.944,415.873 -409.616,342.672 -410.594,332.123ZM-125.224,803.183C-126.484,802.853 -126.974,801.713 -126.974,799.093C-126.974,791.537 -116.733,788.522 -121.744,787.223C-124.514,786.493 -124.524,785.843 -121.844,782.433C-120.284,780.443 -119.114,779.873 -117.484,780.283C-116.024,780.643 -114.664,780.183 -113.544,778.953C-111.834,777.063 -107.884,766.403 -106.474,759.873C-103.331,745.431 -89.986,724.712 -86.474,684.943C-83.068,646.635 -78.758,624.061 -82.314,595.373C-87.321,555.07 -83.896,564.07 -93.844,544.173C-102.217,542.39 -99.109,543.051 -107.474,541.273C-107.836,526.835 -108.112,515.811 -108.474,501.373C-110.323,501.4 -113.482,501.118 -115.964,503.363C-119.633,506.679 -122.824,502.873 -129.024,502.873C-132.002,502.873 -131.661,502.38 -134.484,481.873C-138.036,455.86 -139.34,458.606 -134.084,455.933C-129.888,453.788 -129.212,456.989 -123.514,408.873C-117.878,361.048 -108.535,365.077 -118.084,340.813C-135.603,296.379 -114.461,312.84 -116.374,278.443C-118.093,247.411 -106.974,259.843 -106.974,244.803C-106.974,235.938 -104.202,237.396 -102.544,232.123C-100.962,227.052 -108.466,233.534 -115.454,224.293C-119.26,219.261 -114.564,208.745 -112.734,203.963C-117.603,185.889 -121.663,178.588 -103.104,150.518C-98.284,143.216 -84.234,134.038 -74.594,131.891C-63.278,129.369 -46.512,144.973 -42.584,153.152C-37.183,164.384 -31.473,192.21 -25.899,199.763C-24.182,202.083 -24.041,202.923 -25.013,205.053C-27.738,211.044 -15.974,221.072 -15.974,223.753C-15.974,224.233 -15.338,225.153 -14.56,225.803C-12.623,227.399 -10.122,233.442 -6.805,238.693C-2.347,245.76 -9.848,247.187 -5.137,252.193C-2.282,255.233 2.419,269.153 6.238,285.873C9.25,299.053 9.34,300.193 10.074,334.373C11.858,417.548 17.047,343.707 9.025,485.373C7.642,509.799 5.617,509.959 -9.974,519.343C-9.982,524.571 -10.465,541.345 -13.162,544.593C-14.4,546.099 -28.125,550.31 -28.444,550.813C-28.463,550.844 -24.483,582.9 -24.059,588.373C-22.256,611.64 -10.517,618.758 -12.364,642.783C-13.484,657.333 -10.288,717.023 -8.217,720.223C-7.808,720.853 -6.349,721.373 -4.974,721.373C-2.868,721.373 -1.947,722.463 0.872,728.323C10.421,748.168 -0.36,741.433 -4.669,769.623C-6.049,778.643 -6.712,780.873 -8.018,780.873C-9.448,780.873 -9.589,779.593 -9.179,770.373C-8.597,757.282 -9.277,758.047 -12.1,764.423C-14.421,769.668 -14.225,774.935 -14.474,788.373C-47.437,804.913 -50.243,790.295 -44.974,783.603C-42.584,780.553 -42.484,779.873 -44.474,779.873C-48.298,779.873 -42.925,772.873 -39.354,772.873C-35.784,772.873 -34.314,768.543 -33.044,754.323C-30.321,723.675 -46.429,666.944 -46.974,665.943C-47.484,665.013 -48.664,667.543 -50.424,673.283C-58.121,698.693 -76.234,730.387 -70.124,732.323C-67.329,733.201 -61.824,746.507 -67.974,756.213C-72.434,763.243 -73.744,766.963 -74.974,776.103C-76.554,787.843 -76.834,788.873 -78.494,788.873C-79.624,788.873 -79.994,787.503 -80.034,783.123C-80.114,776.503 -81.284,778.203 -82.434,786.603C-83.224,792.293 -85.654,796.153 -89.814,798.263C-97.164,802.013 -118.414,804.963 -125.224,803.183ZM-20.539,333.973C-21.622,332.88 -29.962,359.956 -24.258,380.873C-22.512,387.273 -10.798,415.033 -10.126,414.353C-6.329,410.556 -19.552,334.973 -20.539,333.973ZM-106.524,225.123C-107.314,223.613 -107.974,221.473 -107.984,220.373C-108.059,212.123 -115.51,217.505 -109.384,224.793C-106.174,228.613 -104.614,228.793 -106.524,225.123ZM94.496,802.943C88.793,800.573 88.936,797.163 95.131,787.843C101.513,778.233 101.035,775.645 100.891,765.373C97.685,774.852 97.276,778.894 83.737,785.623C69.064,792.92 50.334,789.26 71.911,764.903C79.954,755.813 80.589,754.643 83.475,743.513C90.801,715.245 83.124,720.876 38.512,632.373C37.512,632.264 8.151,629.571 2.887,624.053C0.03,621.046 19.903,538.873 20.095,537.873C31.374,478.898 21.906,514.297 15.569,490.253C11.964,476.572 12.665,477.093 19.531,454.373C19.684,364.568 19.072,361.905 24.544,345.843C29.17,332.272 32.043,256.108 38.331,246.753C41.247,242.433 50.353,237.073 56,236.353C77.03,233.676 66.031,230.46 66.031,218.433C66.031,207.885 56.37,219.079 55.284,194.873C54.883,185.933 55.068,184.793 58.423,175.629C70.093,143.747 90.029,118.478 116.315,139.658C138.271,157.347 141.022,190.908 144.549,179.816C146.27,174.39 150.161,183.08 146.096,188.783L144.039,191.673C146.091,197.259 150.549,209.426 153.47,217.163C162.426,240.946 139.842,241.984 159.031,246.263C162.511,247.033 172.661,255.243 174.471,258.763C178.071,265.713 180.081,285.963 180.681,321.373C181.755,384.154 191.184,373.877 182.071,448.873C174.265,513.195 208.034,582.888 209.531,613.373C193.586,621.869 189.183,624.742 168.419,625.873C150.268,626.879 150.031,627.225 150.031,633.683C150.031,658.836 133.771,715.539 132.492,732.403C130.924,753.091 140.652,753.135 135.031,769.133C131.189,780.048 134.819,787.602 131.125,788.553C129.914,788.873 128.987,790.293 128.583,792.443C127.73,796.993 122.805,800.633 115.928,801.803C107.182,803.293 96.685,803.843 94.496,802.943ZM112.304,674.373C110.602,654.446 112.106,638.487 110.781,631.873C89.706,631.873 90.31,632.066 85.255,633.073C90.906,647.009 97.9,679.166 104.342,693.583C107.243,700.073 111.127,706.873 111.939,706.873C114.665,706.873 112.646,678.378 112.304,674.373ZM28.433,493.623C29.608,485.873 29.987,478.873 29.231,478.873C26.666,478.873 24.891,481.823 24.359,486.983C23.53,495.013 27.291,501.153 28.433,493.623ZM51.001,363.373C44.541,380.359 32.634,456.715 36.508,452.723C37.768,451.473 48.798,388.604 51.001,363.373ZM154.989,356.873C153.735,337.153 151.842,319.333 150.905,318.403C150.032,317.543 147.409,324.473 146.568,329.873C143.983,346.412 135.095,356.864 143.631,376.213C151.647,394.342 174.627,467.839 165.603,430.303C165.603,430.303 157.702,399.492 154.989,356.873ZM1704,803.183C1698.2,802.573 1696.3,801.033 1695,796.093C1692.78,786.848 1685.92,786.31 1697.1,772.873C1704.3,764.183 1705,761.643 1705,745.813C1705,734.233 1705.3,731.153 1706.7,728.763C1712.52,718.804 1689.98,653.066 1687.4,621.383C1686.9,615.293 1685.9,610.773 1684.4,607.383C1680.8,599.656 1683.5,600.474 1679.6,578.123C1660.18,577.022 1658.48,577.342 1657.5,572.783C1656.16,566.906 1651.44,572.734 1646.5,567.223C1642.58,563.122 1644.25,549.135 1645,545.173C1649.34,524.041 1651.83,473.147 1648.3,468.503C1643.08,462.075 1656.38,426.404 1645,448.953C1636.59,465.686 1645.78,468.295 1641.6,483.323C1637.58,496.644 1646,500.873 1647,500.873C1647.4,500.873 1647.6,502.563 1647.6,504.623C1647.4,507.883 1647.1,508.413 1644.8,508.673C1639.43,509.31 1644.12,513.431 1637.8,512.213C1626.04,509.955 1624.22,498.926 1620.9,487.373C1631.28,436.808 1632.06,436.749 1632.5,422.873C1634.49,374.774 1637.42,398.951 1639,352.873C1639.92,325.602 1645,283.873 1645,283.873C1645,273.774 1646.27,261.301 1655.5,258.003C1677.06,250.199 1662.98,243.771 1660.5,197.873C1659.12,175.158 1662.89,183.397 1665.5,170.883C1668.4,157.724 1680.7,139.777 1690.5,134.583C1697.31,130.925 1710.26,133.113 1714.3,131.411C1717.2,130.119 1726.6,135.619 1731.2,141.323C1743.66,157.024 1739.62,165.56 1746.3,174.076C1749.4,177.989 1749.5,178.497 1747.4,190.933C1746.9,194.153 1747.2,194.763 1750.4,197.233C1754.1,200.063 1755.1,203.403 1752.8,205.673C1751.9,206.603 1751.9,207.613 1752.8,210.223C1754.54,214.813 1755.31,231.704 1756.8,234.443C1757.8,236.193 1769.2,240.243 1776.4,241.403C1786.93,243.091 1787.18,247.127 1791.7,278.873C1796.84,313.735 1794.5,295.564 1797.2,421.653C1790.03,424.037 1790.53,422.613 1788.7,433.643C1782.14,468.761 1788.17,456.197 1785.5,481.003C1783.35,501.766 1780.64,497.093 1774.7,502.633C1770.66,506.403 1764.77,503.324 1766.9,520.743C1767.4,524.943 1768.4,536.833 1769.1,547.173C1770.5,569.313 1770.3,570.273 1763.5,572.083C1755.11,574.304 1761.17,577.185 1754.4,578.453C1751.6,578.993 1751,579.523 1751,581.733C1751,585.803 1749.9,588.773 1748.7,588.383C1743.3,586.783 1742,586.873 1742,588.793C1742,591.643 1738.2,593.873 1733.3,593.873C1719.88,593.873 1722.18,598.244 1733.8,619.873C1742.5,636.263 1743.8,644.033 1744.9,688.873C1745.7,722.493 1745.9,723.083 1754,731.373C1769.13,746.747 1755.1,747.924 1754.2,777.623C1754,785.463 1753.5,791.873 1753,791.873C1749.41,791.873 1750.17,781.004 1747.3,767.373C1735.91,791.472 1739.55,800.232 1730.3,802.813C1726.7,803.793 1711.8,804.003 1704,803.183ZM1761.6,343.373C1760.72,356.428 1766.43,379.801 1766.8,379.373C1769.18,377.473 1763.83,307.866 1761.6,343.373ZM2735.6,801.603C2732.9,797.523 2731.7,788.893 2732.3,778.033C2733,764.914 2733.86,768.579 2723.3,769.573C2718,770.073 2716.6,769.863 2714.9,768.263C2709.5,763.473 2710.6,759.053 2720.4,745.513C2744.45,712.007 2736.65,686.119 2726.5,646.373C2718.87,616.316 2719.95,611.513 2717.1,589.253C2716,580.043 2695,526.983 2690.9,522.943C2688.7,520.813 2687.6,517.803 2684.9,505.623C2681.24,488.658 2673.16,469.131 2692.6,551.373C2697.82,571.851 2695.3,569.168 2703.1,579.513C2708.5,586.663 2713.4,596.343 2714.9,602.903C2716.2,608.623 2716.3,626.293 2715,630.943C2707.82,656.656 2673.89,616.407 2668,618.383C2666.4,618.883 2666,618.533 2666,616.693C2666,614.033 2653.7,603.303 2652,604.393C2650.1,605.573 2647.9,602.883 2649.1,600.743C2649.7,599.613 2649.8,596.403 2649.4,592.923C2648.12,581.316 2655.7,567.16 2662,554.003C2660.05,522.646 2658.89,499.541 2657.4,497.873C2655.74,495.898 2655.32,487.548 2653.8,484.613C2651.86,480.849 2652.6,463.242 2649.1,459.463C2645.95,456.088 2647.56,433.873 2650.9,433.873C2652.15,433.873 2652.85,420.955 2654,419.373C2654.01,419.363 2658.32,392.087 2660.4,385.193C2664.2,373.541 2664.72,362.844 2667.9,353.503C2669.1,350.273 2669.7,347.223 2669.4,346.713C2669.1,346.203 2669.3,345.193 2669.9,344.473C2676.58,336.621 2674.18,270.161 2689.3,254.073C2691.1,252.183 2697.4,248.423 2703.8,245.313C2725.77,234.749 2727,231.4 2727,222.073C2727,217.453 2726.6,215.793 2725,214.373C2723.9,213.373 2723,212.973 2723,213.463C2723,215.292 2719.63,208.35 2718.1,210.753C2716.82,212.775 2718.26,210.958 2710.6,201.483C2702.9,192.143 2701.5,187.863 2701.5,173.871C2701.5,163.059 2701.7,161.975 2704.6,155.761C2709.98,144.471 2723.59,131.371 2740.5,131.371C2758.18,131.371 2773.75,146.245 2778,157.554C2783.9,172.692 2780.38,202.813 2769.3,212.943L2764.7,217.203C2778.28,228.936 2821.32,231.318 2840,266.993C2846.36,279.423 2880,325.885 2880,334.603C2880,335.77 2864.37,361.726 2855.9,370.423C2841.57,385.506 2846.55,387.861 2836.6,390.463C2834.4,391.063 2832.6,392.063 2832.7,392.673C2833.2,395.073 2831,398.873 2829.1,398.873C2827.6,398.873 2827.2,399.493 2827.3,401.573C2827.5,403.783 2826.6,404.853 2822.7,407.453C2798.94,422.857 2799.59,408.762 2797.3,430.473C2789.71,501.326 2764.28,528.654 2757.8,576.403C2755.44,595.242 2764.5,590.673 2764.5,620.373C2764.23,645.339 2759,653.318 2759,677.393C2759,688.617 2762.24,682.239 2768.7,691.933C2772.31,697.524 2770.38,695.49 2769.4,724.733C2768.27,759.723 2764.04,723.31 2765.3,760.143C2765.69,773.131 2768.73,790.341 2746.9,801.253C2740.4,804.473 2737.5,804.563 2735.6,801.603ZM2683.5,533.783C2677.53,504.944 2677.28,504.479 2679,534.373C2679.9,550.193 2680,550.393 2682.7,552.613C2687.98,556.978 2688.22,556.929 2683.5,533.783ZM2673.9,541.873C2673.8,536.473 2665.8,501.263 2664.7,501.623C2663.7,501.963 2663.7,501.303 2664.5,521.603C2665.1,537.373 2665.5,540.143 2667.1,542.013C2670.02,545.165 2668.04,546.711 2671.5,546.513C2673.8,546.383 2674,545.983 2673.9,541.873ZM2671.5,506.373L2671.8,503.023C2672.42,497.308 2668.66,495.893 2671.5,506.373ZM2676.5,460.123C2675.48,452.072 2674.93,437.121 2674.5,427.373C2667.07,451.423 2675.9,465.873 2676.9,465.873C2677.1,465.873 2676.9,463.283 2676.5,460.123ZM2802.3,388.703C2806.9,386.373 2811,382.913 2811,381.353C2811,380.713 2812.1,379.673 2813.5,379.043C2817.32,377.298 2816.22,375.106 2819.6,373.833C2822.96,372.569 2822.79,368.365 2828.1,363.173C2833.85,357.817 2832.97,358.549 2840.8,343.873C2850.1,326.163 2843.26,330.543 2841.9,326.213C2841.3,324.513 2813,292.873 2812.1,292.873C2811.1,292.873 2791.36,328.825 2785,368.043C2783.9,375.213 2783.9,375.083 2792.7,389.673C2794.3,392.213 2795.6,392.073 2802.3,388.703ZM-297.697,801.883C-323.087,796.525 -307.435,774.473 -311.427,771.373C-334.639,753.118 -316.667,504.42 -324.877,493.283C-330.442,485.749 -318.027,398.401 -318.027,403.403C-318.027,402.663 -322.637,399.493 -328.277,396.363C-348.847,384.933 -362.227,376.473 -364.497,373.453C-367.327,369.703 -370.027,361.943 -370.027,357.583C-370.027,347.574 -356.999,309.784 -356.477,308.773C-354.29,304.562 -355.919,297.511 -353.167,290.253C-349.843,281.605 -348.527,274.661 -344.447,269.333C-337.972,260.833 -343.039,246.114 -327.497,240.503C-317.657,236.943 -279.717,218.793 -276.057,215.893C-273.817,214.123 -270.627,210.693 -268.967,208.283C-264.308,201.52 -262.537,203.311 -260.537,198.543C-257.198,190.506 -259.959,179.02 -260.227,171.096C-260.747,155.487 -258.207,164.827 -256.557,155.442C-252.726,133.635 -229.06,125.553 -214.527,133.084C-198.884,141.175 -191.102,156.431 -198.377,172.319C-203.299,183.092 -194.561,175.195 -202.577,189.523C-208.603,200.299 -208.398,192.594 -211.427,199.623C-213.913,205.443 -217.027,209.506 -217.027,212.653C-217.027,217.553 -222.217,223.973 -228.917,227.353C-233.117,229.473 -234.387,228.973 -244.857,220.993C-264.197,206.303 -259.894,201.487 -263.507,204.983C-271.913,213.115 -256.155,229.411 -239.607,283.373C-237.775,246.863 -234.498,241.374 -241.277,237.733C-243.147,236.733 -243.087,236.523 -239.937,233.283C-235.627,228.833 -230.187,228.513 -226.497,232.493C-224.087,235.103 -224.077,235.133 -225.957,237.783C-232.48,246.929 -224.906,256.962 -219.387,284.613C-217.777,292.683 -217.577,293.093 -216.907,289.873C-216.7,288.873 -211.979,251.629 -215.057,219.093L-210.787,220.553C-201.477,223.723 -166.377,240.193 -164.027,242.493C-161.597,244.863 -161.527,245.313 -161.617,258.153C-161.802,283.606 -166.403,274.222 -166.087,293.713C-165.794,312.833 -171.623,315.131 -168.547,323.813C-166.767,328.863 -166.557,333.873 -168.127,333.873C-171.486,333.873 -185.206,327.546 -187.457,329.983C-188.378,330.983 -231.02,392.596 -228.277,393.523C-223.292,395.2 -205.801,404.081 -211.487,408.843C-214.787,411.576 -207.876,412.834 -211.567,416.923C-214.577,420.237 -213.495,419.975 -189.307,427.943C-184.644,482.943 -194.674,715.087 -199.277,743.883C-197.291,748.441 -192.296,759.537 -191.087,764.393C-188.041,776.473 -160.998,786.858 -163.537,794.913C-166.062,802.859 -193.798,801.574 -208.227,786.353C-214.418,779.793 -215.355,780.215 -221.897,782.473C-227.227,784.313 -226.354,784.135 -242.527,778.373C-243.792,726.272 -245.108,774.32 -244.787,618.373C-262.687,542.093 -257.448,541.89 -262.627,570.373C-268.229,600.897 -263.749,650.583 -270.147,744.173C-271.007,756.763 -270.967,760.603 -269.937,763.083C-268.439,766.709 -268.577,766.13 -278.337,774.983C-276.526,789.244 -275.133,796.868 -280.677,800.103C-284.457,802.303 -291.957,803.093 -297.697,801.883ZM-321.187,349.013C-322.337,352.843 -322.267,353.183 -319.967,354.933C-317.567,356.753 -317.517,356.743 -317.187,354.673C-316.896,352.897 -317.617,337.057 -321.187,349.013ZM433.423,800.433C431.514,797.528 431.691,790.198 431.473,778.233C447.07,754.736 458.955,735.366 458.983,704.683C459.004,684.996 461.225,632.608 469.133,606.583C475.048,587.034 475.033,555.473 474.653,554.473C474.373,553.763 472.093,552.603 469.563,551.893C464.183,550.393 464.233,550.683 466.963,537.403C473.217,507.024 472.793,481.405 476.093,458.573C477.133,451.443 477.083,450.673 475.423,449.453C471.074,446.266 495.738,401.088 492.393,397.713C491.263,396.593 491.943,394.773 496.573,386.513C510.486,361.625 492.014,388.651 457.973,390.613C442.547,391.508 444.818,395.817 430.973,394.793C419.861,393.982 415.433,397.505 412.123,394.513C411.123,393.603 410.033,393.143 409.693,393.493C408.653,394.523 403.803,392.883 404.223,391.633C404.433,390.993 408.833,387.963 414.003,384.903C426.855,377.288 437.732,365.197 422.193,368.013C407.56,370.661 405.324,361.244 422.973,360.923C426.123,360.873 430.343,359.983 432.833,358.853C446.388,352.663 460.887,364.983 483.683,342.723C484.236,334.211 484.355,326.557 487.493,317.273C492.549,302.338 492.976,264.334 500.583,249.663C503.992,243.071 516.3,244.595 519.153,241.153C519.793,240.383 520.673,234.853 521.103,228.853C522.159,214.242 524.008,212.417 533.733,199.373C534.545,176.624 534.241,185.067 535.063,162.371C543.619,144.219 543.347,142.885 556.243,135.535C566.149,129.887 575.818,129.487 581.133,130.751C587.743,132.319 598.623,143.245 603.693,153.406C611.712,169.485 612.095,200.957 617.203,215.873C620.563,225.684 620.748,232.998 621.283,240.163C650.461,254.259 653.747,255.517 654.383,258.633C657.873,275.473 659.123,289.153 659.633,316.373C660.462,360.96 663.973,368.285 663.973,361.243C663.973,346.811 675.918,309.738 676.053,292.963C676.143,283.508 677.842,251.66 686.923,247.893C691.273,246.081 688.544,245.572 692.473,241.873C695.827,238.738 695.811,239.469 690.973,231.993C682.457,218.807 692.143,225.471 689.233,217.743C688.223,215.063 688.363,214.723 691.053,213.333C693.983,211.813 694.973,208.603 692.903,207.333C690.79,206.016 697.007,202.873 693.633,202.873C691.173,202.873 691.623,201.353 694.473,200.053C697.563,198.643 697.923,194.873 694.973,194.873C692.633,194.873 692.303,193.343 694.473,192.513C698.292,191.01 692.442,183.718 700.723,184.793C702.783,185.063 702.133,183.146 699.973,182.581C697.893,182.036 697.163,179.871 699.063,179.871C699.763,179.871 699.923,178.539 699.513,176.093C698.378,169.462 703.973,169.617 703.973,165.852C703.973,161.105 710.709,162.294 712.813,156.428C714.399,152.086 717.835,150.29 727.973,141.121C739.383,130.826 737.061,137.495 743.253,132.288C747.387,128.815 746.737,130.567 758.073,131.707C768.113,132.719 764.232,134.491 774.463,135.941C778.103,136.457 782.303,137.512 783.783,138.285C788.053,140.518 795.353,148.051 797.383,152.315C799.595,156.973 817.475,175.029 818.923,187.123C819.433,191.413 820.293,193.593 822.293,195.683C823.763,197.223 824.973,199.403 824.973,200.533C824.973,206.319 834.485,209.886 828.693,220.013C823.775,228.61 829.592,239.886 827.033,234.123C825.193,229.984 820.485,231.867 825.903,239.423L829.093,243.873L826.033,243.873C821.973,243.873 822.153,245.513 826.443,247.553C833.613,250.979 832.596,258.144 834.453,268.873C840.422,303.232 849.685,391.58 849.953,476.293C856.241,495.196 856.428,494.081 855.033,502.273C853.263,512.643 853.203,512.773 848.183,515.953C843.303,519.043 837.973,519.853 837.973,517.493C837.973,515.521 833.88,516.099 829.473,512.493L826.473,510.033C837.208,498.739 835.148,503.305 820.523,437.373C810.623,392.753 808.973,384.683 808.973,380.923C808.973,378.763 808.523,376.713 807.973,376.373C801.826,372.583 821.78,448.67 823.673,484.373L824.143,493.373C815.772,497.675 818.878,496.08 810.513,500.373C804.538,548.473 775.525,656.253 777.973,664.873C779.677,670.878 783.897,683.258 786.963,721.873C789.963,759.596 796.167,754.615 780.473,760.443C780.708,765.317 780.847,774.242 783.073,781.373C788.441,798.563 783.939,801.873 770.273,801.873C748.175,801.848 752.47,791.07 755.633,767.143C756.731,758.831 752.283,765.405 749.983,756.913C749.083,753.583 748.463,752.873 746.433,752.873C738.244,752.873 757.331,778.295 736.523,781.413C730.543,782.313 721.223,780.213 718.323,777.313C711.259,770.249 722.088,756.513 718.443,735.223C717.049,726.964 721.973,727.158 723.013,704.373C725.265,654.087 740.046,708.743 710.903,552.873C707.023,532.083 700.913,506.503 698.953,502.833C698.423,501.843 695.273,500.243 691.843,499.213C684.119,496.905 684.37,496.205 683.133,487.873C681.236,475.252 682.932,513.664 683.453,515.003C684.262,517.045 680.93,520.054 679.303,521.803C666.363,513.712 669.007,516.903 657.823,494.603C661.413,466.72 663.631,471.583 651.703,468.563C655.257,421.544 666.329,359.397 661.403,368.373C653.226,383.212 655.889,376.948 635.803,393.093C638.37,395.749 642.21,399.239 641.803,401.683C641.473,403.693 641.423,403.693 635.973,401.333C625.193,396.657 627.147,399.313 628.973,404.123C631.376,410.436 631.597,409.49 628.833,410.193C625.985,410.946 626.679,409.596 630.653,441.673C635.907,484.083 630.28,432.46 626.483,523.373C625.233,553.473 624.543,562.693 623.483,563.773C621.823,565.449 610.703,565.669 594.523,566.373C583.963,625.368 599.125,606.883 572.893,684.063C566.317,703.445 562.218,712.951 567.973,741.503C573.168,767.259 575.308,764.385 567.923,775.623C564.923,780.193 563.213,781.873 561.583,781.873C559.734,781.873 550.908,778.174 541.473,768.833C539.154,711.542 538.547,716.078 543.303,708.413C545.333,705.133 547.433,700.863 547.983,698.913C549.273,694.253 549.253,658.803 547.953,646.103C545.549,622.808 552.974,612.225 549.533,584.053C546.386,558.368 553.221,562.181 527.653,561.373C520.681,610.633 516,590.436 509.413,625.873C503.768,656.335 479.919,714.418 479.983,724.683C480.056,731.473 486.051,732.465 479.543,747.083C459.8,791.39 464.971,791.266 458.693,794.523C455.553,796.133 437.113,802.873 435.813,802.873C435.373,802.873 434.303,801.773 433.423,800.433ZM676.783,501.903C677.153,496.873 675.843,494.903 673.443,496.903C669.446,500.2 675.933,513.749 676.783,501.903ZM678.433,471.943C677.733,473.063 680.913,481.263 681.733,480.453C682.693,479.453 680.655,468.356 678.433,471.943ZM704.983,344.743C704.948,337.051 701.744,331.387 702.023,343.213C702.183,349.663 700.553,357.463 697.053,367.093C695.043,372.633 694.063,385.313 695.803,383.323C697.853,381.005 704.996,348.24 704.983,344.743ZM627.913,349.373C630.003,336.57 622.324,336.564 622.053,352.623C621.983,356.513 622.183,356.873 624.473,356.873C627.583,356.873 626.845,355.896 627.913,349.373ZM818.913,240.873C817.784,240.873 817.356,242.873 819.533,242.873C821.67,242.873 820.072,240.873 818.913,240.873ZM698.803,230.513C699.223,226.833 695.643,222.873 691.903,222.873C684.091,222.873 692.676,229.35 693.543,232.083C694.513,235.153 698.403,233.993 698.803,230.513ZM822.573,226.713C821.973,227.683 822.833,228.873 824.143,228.873C826.284,228.873 823.809,224.723 822.573,226.713ZM693.473,215.873C691.973,215.873 691.383,218.943 692.643,220.203C695.44,223.001 695.808,215.873 693.473,215.873ZM826.973,217.783C826.973,212.827 821.659,219.873 825.403,219.873C826.323,219.873 826.973,219.013 826.973,217.783ZM829.323,214.343C828.733,212.813 825.973,212.263 825.973,213.673C825.973,215.943 830.741,218.003 829.323,214.343ZM698.803,187.633C697.495,188.963 698.46,192.786 700.143,191.103C701.438,189.807 700.501,185.935 698.803,187.633ZM1605.37,801.433C1598.28,798.348 1604.26,793.414 1595.27,793.973C1587.37,794.453 1584.47,793.223 1579.07,787.203C1568.28,775.085 1576.66,774.673 1573.57,764.973C1549.08,688.709 1546.27,566.203 1525.57,503.403C1519.58,528.308 1524.34,495.31 1525.47,661.373C1526.07,726.563 1526.28,718.095 1530.97,739.873C1535.33,759.488 1532.73,761.747 1534.97,770.143C1536.17,774.343 1536.07,775.343 1534.67,778.433C1533.77,780.363 1531.37,782.863 1529.47,784.003C1522.68,788.079 1530.52,788.579 1514.47,791.683C1503.1,793.89 1521.18,801.198 1488.67,801.313C1471.67,801.383 1470.97,801.063 1470.97,792.983C1470.97,787.827 1471.48,787.998 1481.17,778.873C1478.36,768.402 1472.52,750.873 1483.17,750.873C1488.47,750.873 1488.77,750.343 1487.37,744.073C1466.96,663.95 1468.54,519.44 1456.67,521.493C1436.96,524.889 1441,529.565 1427.97,512.463C1424.5,508.173 1428.06,485.392 1422.57,480.393C1417.1,475.174 1415.25,482.941 1417.67,472.643C1418.97,467.313 1418.97,462.183 1418.07,438.373C1416.35,387.768 1430.65,305.764 1429.97,286.283C1429.97,276.851 1436.97,268.433 1436.97,259.773C1436.97,248.282 1442.3,257.538 1475.47,237.093C1490.8,227.654 1490.32,227.274 1492.87,222.373C1492.96,224.937 1492.66,227.263 1495.87,235.383C1504.36,255.607 1505.6,282.255 1507.37,265.513C1507.87,261.513 1509.17,256.993 1510.67,254.163C1515.14,245.612 1510.12,243.5 1513.47,238.183C1515.47,235.193 1515.67,235.453 1505.87,230.383C1496.07,225.343 1494.37,222.933 1493.67,212.473C1492.97,202.063 1490.27,192.813 1488.27,193.583C1483.27,195.503 1477.67,177.755 1482.27,174.715C1482.97,174.28 1482.87,172.119 1482.17,168.298C1472.57,121.847 1540.47,116.359 1540.47,161.121C1540.37,167.726 1540.67,169.871 1541.67,169.871C1546.66,169.871 1544.92,188.873 1539.57,188.873C1538.02,188.873 1534.58,203.999 1537.67,216.523C1538.27,219.393 1532.77,225.503 1524.87,230.533C1518.67,234.523 1518.67,234.553 1521.07,240.533C1523.96,247.975 1517.51,246.079 1522.47,258.343C1525.63,266.532 1527.37,283.623 1527.37,283.623C1527.47,283.713 1539.97,226.885 1539.97,219.583C1562.01,242.482 1594.42,246.801 1598.57,250.053C1600.02,251.16 1604.31,270.433 1605.97,276.873C1610.95,295.982 1610.62,335.723 1612.37,343.203C1623.32,389.219 1620.87,465.876 1618.77,474.373C1615.24,487.58 1621.66,491.878 1619.07,510.113C1617.47,521.563 1616.37,523.483 1610.77,524.323C1604.17,525.313 1596.97,527.013 1596.97,527.593C1596.97,528.593 1606.26,642.412 1625.17,714.873C1637.17,761.535 1637.62,752.806 1636.07,763.873C1634.64,772.292 1630.97,780.623 1630.97,780.623C1630.97,783.004 1644.6,789.8 1641.07,799.123C1640.27,801.093 1639.17,801.703 1635.37,802.223C1627.07,803.373 1608.67,802.893 1605.37,801.433ZM1600.47,513.893C1602.57,511.55 1604.29,498.329 1601.57,497.263C1597.56,495.709 1598.89,501.349 1596.37,512.623C1595.67,516.463 1597.57,517.083 1600.47,513.893ZM1455.07,496.853C1452.77,488.803 1452.37,488.053 1450.97,489.493C1448.16,492.255 1460.64,516.865 1455.07,496.853ZM1456.97,417.933C1456.97,406.145 1465.09,384.181 1466.57,361.873C1467.21,351.72 1465.9,347.814 1463.27,335.373C1454.04,355.883 1452.8,429.682 1455.37,426.433C1456.47,425.113 1456.97,422.373 1456.97,417.933ZM1577.37,351.873C1575.95,327.957 1573.82,353.101 1577.47,371.373C1577.76,368.028 1578.2,366.071 1577.37,351.873ZM254.073,799.283C250.423,796.213 250.253,794.143 252.563,780.773C253.423,775.773 253.913,771.463 253.653,771.203C253.333,770.871 231.672,765.91 230.623,764.883C230.143,764.413 229.813,733.513 229.883,696.203C230.046,611.867 230.358,585.056 217.363,498.873C215.304,485.194 214.751,478.373 213.493,478.373C211.813,478.373 208.083,487.133 208.033,491.173C207.983,495.863 210.243,500.443 212.953,501.153C215.603,501.843 215.623,505.463 212.993,506.873C211.893,507.463 210.993,508.593 210.993,509.393C210.993,511.478 204.628,513.053 203.603,514.693C201.861,517.504 191.16,510.042 189.263,508.783C187.949,492.607 187.477,493.151 190.973,484.093C196.143,470.644 189.778,484.08 197.453,442.373C215.831,342.064 210.184,252.946 209.063,251.573C206.174,248.017 212.25,245.107 210.173,241.203C209.073,239.153 209.243,232.453 210.473,229.583C210.923,228.533 210.563,226.033 209.613,223.553C205.097,211.698 213.853,219.359 212.553,210.933C211.923,206.863 212.493,205.973 219.243,200.553C229.005,192.714 219.782,189.288 226.993,182.371C232.357,177.231 228.975,167.941 236.483,163.112C242.164,159.459 237.834,159.508 242.743,149.8C247.795,139.837 249.224,146.483 258.473,137.238C272.43,123.27 283.966,133.871 294.743,133.871C298.265,133.871 305.302,142.105 314.243,149.224C317.073,151.474 319.213,154.085 319.543,155.686C321.503,165.106 323.493,170.608 325.683,172.63C329.804,176.47 325.593,177.066 328.433,181.083C333.472,188.274 323.838,192.43 332.483,194.023C334.129,194.337 338.042,197.939 335.543,202.783C330.668,212.202 344.577,206.99 342.443,218.273C341.843,221.463 342.013,221.723 345.403,222.843C349.413,224.163 349.423,224.193 347.903,227.043C345.894,230.799 352.993,233.474 352.993,237.203C352.993,238.163 353.703,240.023 354.563,241.343C358.005,246.571 358.083,267.867 361.973,302.873C369.663,371.773 369.283,366.143 369.563,414.873C369.773,452.023 370.103,461.353 371.343,465.723C373.767,474.242 368.813,488.452 367.813,489.383C365.823,491.223 353.683,493.953 352.543,492.823C348.82,489.1 350.22,496.539 351.523,520.873C356.729,618.014 368.653,607.252 378.483,681.753C381.913,707.733 383.073,713.143 386.063,717.343C389.433,722.053 394.983,742.083 395.003,749.563C395.033,760.783 395.253,761.193 409.633,775.563C423.963,789.893 426.953,794.003 424.883,796.513C421.143,801.003 412.153,802.053 399.683,799.443C391.653,797.763 390.993,797.293 387.163,790.543C383.213,783.573 375.233,772.873 373.993,772.873C373.443,772.873 372.993,774.413 372.993,776.303C372.993,778.853 372.483,779.903 371.003,780.373C368.253,781.243 367.323,780.433 366.593,776.553C365.293,769.613 365.163,769.573 349.813,771.533C328.964,774.188 332.493,776.983 326.223,740.253C313.64,666.637 312.308,612.377 303.453,560.753C300.078,541.017 291.138,525.205 287.073,504.363C283.703,487.143 283.993,488.113 282.833,490.193C282.153,491.413 282.223,494.273 283.063,499.173C286.942,521.951 280.99,541.369 281.013,573.113C281.062,642.117 289.979,746.879 283.483,762.873C282.073,766.353 281.603,770.543 281.413,781.373C281.151,796.902 284.157,801.863 265.823,801.863C257.943,801.873 256.862,801.633 254.073,799.283ZM352.463,479.913C354.952,475.9 351.158,454.413 349.373,473.683C348.803,479.853 348.933,480.873 350.293,480.873C351.163,480.873 352.143,480.443 352.463,479.913ZM343.153,415.023C335.319,373.73 335.731,379.323 335.403,365.873C334.883,343.763 333.183,343.183 333.083,365.073C332.893,405.598 347.528,438.1 343.153,415.023ZM-164.407,400.623C-163.827,399.623 -157.528,390.873 -160.827,390.873C-161.827,390.873 -170.007,384.688 -170.007,381.353C-170.007,380.053 -170.457,378.713 -171.007,378.373C-172.827,377.243 -172.127,373.043 -170.007,372.373C-164.797,370.715 -173.536,362.162 -153.507,368.353C-144.907,371.023 -144.977,371.033 -142.067,365.983C-141.627,365.213 -140.737,364.923 -140.067,365.333C-138.477,366.313 -139.717,378.773 -141.627,380.953C-142.387,381.813 -143.007,383.003 -143.007,383.573C-143.007,385.098 -150.645,391.126 -153.307,395.213C-157.246,401.16 -166.072,403.518 -164.407,400.623Z" style="fill:white;fill-opacity:0.53;fill-rule:nonzero;"/>
        </g>
        <g transform="matrix(2.13442,0,0,3.45102,26.4719,30.8909)">
            <path d="M61.379,46.789C60.659,47.54 59.79,48.249 58.77,48.917C57.751,49.584 56.571,50.168 55.232,50.669C53.893,51.17 52.414,51.566 50.794,51.858C49.175,52.151 47.406,52.297 45.487,52.297C42.289,52.297 39.33,51.907 36.612,51.128C33.893,50.349 31.554,49.271 29.595,47.894C27.636,46.517 26.107,44.883 25.007,42.991C23.908,41.1 23.358,39.027 23.358,36.774C23.358,34.521 23.918,32.449 25.037,30.557C26.157,28.665 27.706,27.031 29.685,25.654C31.664,24.277 34.003,23.199 36.702,22.42C39.4,21.641 42.329,21.252 45.487,21.252C47.046,21.252 48.576,21.363 50.075,21.586C51.574,21.808 52.983,22.121 54.303,22.524C55.622,22.928 56.821,23.415 57.901,23.985C58.98,24.555 59.88,25.202 60.599,25.925L57.001,27.761C56.561,27.288 55.972,26.815 55.232,26.342C54.493,25.87 53.623,25.452 52.623,25.091C51.624,24.729 50.535,24.437 49.355,24.214C48.176,23.992 46.906,23.881 45.547,23.881C42.788,23.881 40.32,24.228 38.141,24.924C35.962,25.619 34.113,26.558 32.594,27.74C31.074,28.923 29.915,30.293 29.115,31.85C28.316,33.408 27.916,35.049 27.916,36.774C27.916,38.499 28.326,40.14 29.145,41.698C29.965,43.256 31.134,44.626 32.654,45.808C34.173,46.99 36.022,47.929 38.201,48.625C40.38,49.32 42.828,49.668 45.547,49.668C47.986,49.668 50.305,49.32 52.504,48.625C54.702,47.929 56.541,46.816 58.021,45.286L61.379,46.789Z" style="fill-rule:nonzero;"/>
            <path d="M119.669,36.774C119.669,39.027 119.11,41.1 117.99,42.991C116.871,44.883 115.322,46.517 113.343,47.894C111.364,49.271 109.025,50.349 106.326,51.128C103.628,51.907 100.699,52.297 97.541,52.297C94.382,52.297 91.454,51.907 88.755,51.128C86.057,50.349 83.718,49.271 81.739,47.894C79.76,46.517 78.21,44.883 77.091,42.991C75.972,41.1 75.412,39.027 75.412,36.774C75.412,34.521 75.972,32.449 77.091,30.557C78.21,28.665 79.76,27.031 81.739,25.654C83.718,24.277 86.057,23.199 88.755,22.42C91.454,21.641 94.382,21.252 97.541,21.252C100.699,21.252 103.628,21.641 106.326,22.42C109.025,23.199 111.364,24.277 113.343,25.654C115.322,27.031 116.871,28.665 117.99,30.557C119.11,32.449 119.669,34.521 119.669,36.774ZM115.112,36.774C115.112,35.049 114.712,33.408 113.912,31.85C113.113,30.293 111.953,28.923 110.434,27.74C108.915,26.558 107.066,25.619 104.887,24.924C102.708,24.228 100.259,23.881 97.541,23.881C94.822,23.881 92.373,24.228 90.194,24.924C88.016,25.619 86.166,26.558 84.647,27.74C83.128,28.923 81.969,30.293 81.169,31.85C80.369,33.408 79.97,35.049 79.97,36.774C79.97,38.499 80.369,40.14 81.169,41.698C81.969,43.256 83.128,44.619 84.647,45.787C86.166,46.956 88.016,47.887 90.194,48.583C92.373,49.278 94.822,49.626 97.541,49.626C100.259,49.626 102.708,49.278 104.887,48.583C107.066,47.887 108.915,46.956 110.434,45.787C111.953,44.619 113.113,43.256 113.912,41.698C114.712,40.14 115.112,38.499 115.112,36.774Z" style="fill-rule:nonzero;"/>
            <path d="M168.365,47.164L168.485,47.164L168.485,22.003L172.803,22.003L172.803,51.545L167.405,51.545L142.698,26.134L142.578,26.134L142.578,51.545L138.26,51.545L138.26,22.003L143.657,22.003L168.365,47.164Z" style="fill-rule:nonzero;"/>
            <path d="M34.513,69.822L34.513,75.914L50.944,75.914L50.944,81.797L34.513,81.797L34.513,93.272L24.378,93.272L24.378,63.73L52.324,63.73L52.324,69.822L34.513,69.822Z" style="fill-rule:nonzero;"/>
            <path d="M81.709,93.272L81.709,63.73L110.254,63.73L110.254,69.78L91.604,69.78L91.604,75.33L109.235,75.33L109.235,81.046L91.604,81.046L91.604,87.18L111.334,87.18L111.334,93.272L81.709,93.272Z" style="fill-rule:nonzero;"/>
            <path d="M163.627,93.272L154.452,81.547L150.974,81.547L150.974,93.272L140.899,93.272L140.899,63.73L157.09,63.73C159.129,63.73 161.118,63.876 163.057,64.168C164.996,64.46 166.736,64.954 168.275,65.649C169.814,66.345 171.043,67.263 171.963,68.403C172.882,69.544 173.342,70.962 173.342,72.659C173.342,74.662 172.563,76.345 171.003,77.708C169.444,79.071 167.285,80.045 164.527,80.629L175.621,93.272L163.627,93.272ZM163.207,72.784C163.207,72.089 162.997,71.526 162.578,71.094C162.158,70.663 161.618,70.33 160.959,70.093C160.299,69.857 159.559,69.697 158.74,69.613C157.92,69.53 157.13,69.488 156.371,69.488L150.914,69.488L150.914,76.373L155.771,76.373C156.611,76.373 157.47,76.324 158.35,76.227C159.229,76.13 160.029,75.956 160.749,75.705C161.468,75.455 162.058,75.093 162.518,74.62C162.977,74.148 163.207,73.536 163.207,72.784Z" style="fill-rule:nonzero;"/>
            <path d="M29.955,132.329L52.683,132.329L52.683,134.999L25.637,134.999L25.637,105.457L51.964,105.457L51.964,108.127L29.955,108.127L29.955,118.308L50.525,118.308L50.525,120.937L29.955,120.937L29.955,132.329Z" style="fill-rule:nonzero;"/>
            <path d="M91.244,130.618L91.364,130.618L91.364,105.457L95.682,105.457L95.682,134.999L90.284,134.999L65.577,109.587L65.457,109.587L65.457,134.999L61.139,134.999L61.139,105.457L66.536,105.457L91.244,130.618Z" style="fill-rule:nonzero;"/>
            <path d="M142.698,130.242C141.978,130.993 141.109,131.703 140.089,132.37C139.07,133.038 137.89,133.622 136.551,134.123C135.212,134.624 133.732,135.02 132.113,135.312C130.494,135.604 128.725,135.75 126.806,135.75C123.607,135.75 120.649,135.361 117.93,134.582C115.212,133.803 112.873,132.725 110.914,131.348C108.955,129.971 107.426,128.337 106.326,126.445C105.227,124.554 104.677,122.481 104.677,120.228C104.677,117.975 105.237,115.902 106.356,114.011C107.476,112.119 109.025,110.485 111.004,109.108C112.983,107.731 115.322,106.653 118.02,105.874C120.719,105.095 123.647,104.705 126.806,104.705C128.365,104.705 129.894,104.817 131.394,105.039C132.893,105.262 134.302,105.575 135.621,105.978C136.941,106.381 138.14,106.868 139.22,107.439C140.299,108.009 141.199,108.656 141.918,109.379L138.32,111.215C137.88,110.742 137.291,110.269 136.551,109.796C135.811,109.323 134.942,108.906 133.942,108.544C132.943,108.183 131.853,107.891 130.674,107.668C129.494,107.446 128.225,107.334 126.866,107.334C124.107,107.334 121.638,107.682 119.46,108.377C117.281,109.073 115.432,110.012 113.912,111.194C112.393,112.376 111.234,113.746 110.434,115.304C109.635,116.862 109.235,118.503 109.235,120.228C109.235,121.953 109.645,123.594 110.464,125.152C111.284,126.709 112.453,128.079 113.972,129.262C115.492,130.444 117.341,131.383 119.52,132.078C121.698,132.774 124.147,133.121 126.866,133.121C129.305,133.121 131.623,132.774 133.822,132.078C136.021,131.383 137.86,130.27 139.339,128.74L142.698,130.242Z" style="fill-rule:nonzero;"/>
            <path d="M154.452,132.329L177.18,132.329L177.18,134.999L150.134,134.999L150.134,105.457L176.461,105.457L176.461,108.127L154.452,108.127L154.452,118.308L175.021,118.308L175.021,120.937L154.452,120.937L154.452,132.329Z" style="fill-rule:nonzero;"/>
        </g>
        <g transform="matrix(1.54642,0,0,0.94667,457.157,291.891)">
            <path d="M53.192,115.831C54.847,115.729 56.378,115.45 57.785,114.994C59.193,114.538 60.503,113.752 61.717,112.636L63.621,92.405L52.198,92.405L54.268,71.566L78.354,71.566L72.974,128.456C69.994,131.295 66.642,133.577 62.917,135.301C59.193,137.025 55.344,137.887 51.371,137.887C47.177,137.887 43.355,136.797 39.907,134.617C36.458,132.436 33.519,129.318 31.091,125.262C28.663,121.205 26.774,116.287 25.422,110.507C24.07,104.726 23.394,98.236 23.394,91.036C23.394,81.808 24.263,73.138 26.001,65.025C27.739,56.913 30.167,49.839 33.285,43.806C36.403,37.772 40.072,33.031 44.294,29.583C48.515,26.135 53.109,24.411 58.075,24.411C62.71,24.411 66.918,25.755 70.698,28.442C74.478,31.13 77.444,35.11 79.596,40.383L69.58,56.963C68.477,54.022 66.973,51.563 65.069,49.586C63.166,47.608 60.751,46.62 57.827,46.62C54.957,46.62 52.295,47.735 49.839,49.966C47.384,52.197 45.259,55.214 43.466,59.017C41.672,62.82 40.265,67.231 39.244,72.251C38.224,77.27 37.713,82.569 37.713,88.146C37.713,92.101 38.044,95.777 38.706,99.174C39.369,102.572 40.362,105.512 41.686,107.997C43.011,110.481 44.638,112.408 46.57,113.777C48.501,115.146 50.708,115.831 53.192,115.831Z" style="fill:rgb(222,124,0);fill-rule:nonzero;"/>
            <path d="M120.071,24.563C124.486,24.563 128.445,25.679 131.949,27.91C135.453,30.141 138.419,33.335 140.847,37.493C143.275,41.651 145.137,46.67 146.434,52.552C147.731,58.434 148.379,64.974 148.379,72.174C148.379,81.301 147.538,89.845 145.855,97.805C144.172,105.766 141.813,112.712 138.778,118.645C135.743,124.577 132.115,129.242 127.893,132.639C123.672,136.036 119.023,137.735 113.946,137.735C109.477,137.735 105.476,136.619 101.944,134.388C98.413,132.157 95.419,128.963 92.964,124.805C90.508,120.648 88.632,115.628 87.335,109.746C86.038,103.865 85.39,97.324 85.39,90.124C85.39,80.997 86.245,72.453 87.956,64.493C89.666,56.532 92.067,49.586 95.157,43.653C98.247,37.721 101.903,33.056 106.124,29.659C110.346,26.262 114.995,24.563 120.071,24.563ZM114.691,114.918C117.726,114.918 120.444,113.777 122.844,111.495C125.245,109.214 127.273,106.172 128.928,102.369C130.583,98.566 131.853,94.205 132.735,89.287C133.618,84.369 134.06,79.324 134.06,74.152C134.06,70.4 133.729,66.876 133.067,63.58C132.404,60.284 131.452,57.42 130.211,54.986C128.969,52.552 127.41,50.625 125.534,49.206C123.658,47.786 121.534,47.076 119.161,47.076C116.181,47.076 113.491,48.242 111.091,50.575C108.69,52.907 106.648,55.975 104.965,59.777C103.282,63.58 101.986,67.915 101.075,72.783C100.165,77.651 99.709,82.67 99.709,87.842C99.709,91.594 100.041,95.118 100.703,98.414C101.365,101.71 102.331,104.574 103.6,107.008C104.869,109.442 106.428,111.369 108.276,112.788C110.125,114.208 112.263,114.918 114.691,114.918Z" style="fill:rgb(222,124,0);fill-rule:nonzero;"/>
            <path d="M157.402,99.098L164.272,27.301L177.846,27.301L170.893,99.098L157.402,99.098ZM170.314,121.002C170.314,123.132 170.107,125.11 169.693,126.935C169.279,128.76 168.727,130.357 168.038,131.726C167.348,133.095 166.506,134.186 165.513,134.997C164.52,135.808 163.444,136.214 162.285,136.214C160.078,136.214 158.284,135.022 156.905,132.639C155.525,130.256 154.836,127.188 154.836,123.436C154.836,121.307 155.043,119.329 155.456,117.504C155.87,115.679 156.45,114.081 157.195,112.712C157.94,111.343 158.795,110.253 159.761,109.442C160.726,108.631 161.788,108.225 162.947,108.225C165.099,108.225 166.865,109.442 168.245,111.876C169.624,114.31 170.314,117.352 170.314,121.002Z" style="fill:rgb(222,124,0);fill-rule:nonzero;"/>
        </g>
    </g>
</svg>
